<svg xmlns="http://www.w3.org/2000/svg" xmlns:xlink="http://www.w3.org/1999/xlink" width="415" height="566" viewBox="0 0 415 566">
  <defs>
    <style>
      .cls-1 {
        fill: none;
      }

      .cls-2 {
        opacity: 0.3;
        clip-path: url(#clip-path);
      }

      .cls-3 {
        opacity: 0.5;
      }

      .cls-4 {
        fill: #ccc;
      }
    </style>
    <clipPath id="clip-path">
      <rect class="cls-1" width="415" height="566"/>
    </clipPath>
  </defs>
  <g id="Wiederholungsraster_38" data-name="Wiederholungsraster 38" class="cls-2">
    <g transform="translate(4606.979 1611.493)">
      <g id="Gruppe_13902" data-name="Gruppe 13902" class="cls-3" transform="matrix(0.996, -0.087, 0.087, 0.996, -4606.979, -1608.416)">
        <path id="Pfad_9697" data-name="Pfad 9697" class="cls-4" d="M599.867,77.1c-.588-1.6-4.808-.378-4.251,1.139,2.7,7.349,3.072,14.538.432,21.953A29.245,29.245,0,0,1,594,105.033c-1.449,2.5-1.86,1.355-3.469-.741-2.332-3.039-3.742-6.753-5.39-10.182-.744-1.548-3.339-.476-4.119.472-3.235,3.933-4.51,9.264-6.709,13.779a14.9,14.9,0,0,1-2.14,3.757l-.009.01c-.788.573-1.1.236-1.175.126-.025-.048-.051-.1-.084-.147-.929-1.409-.98-3.961-1.135-5.578-1.117-11.682,1.792-25.553,9.483-34.636,1.65-1.948-2.44-2.035-3.448-.845-8.567,10.116-13.416,27.956-9.546,41,1.334,4.494,5.575,4.946,8.748,1.678,3.951-4.069,5.05-9.965,7.519-14.993,2.954,6.1,8.416,15.635,14.009,9.317,2.778-3.139,4.512-9.669,5.255-13.68C602.885,88.447,601.924,82.7,599.867,77.1Z" transform="translate(-564.908 -70.268)"/>
        <g id="Gruppe_7897" data-name="Gruppe 7897" transform="translate(36.921 15.307)">
          <path id="Pfad_9698" data-name="Pfad 9698" class="cls-4" d="M703.148,128.265a40.085,40.085,0,0,1-11.844,5.743c-3.652,1.051-10.292,3.619-10.226-2V132a2.917,2.917,0,0,0,2.627-.2c2.889-1.963,5.834-4.391,7.365-7.627.854-1.8,2.112-5.325.076-6.857-4.311-3.244-11.346,5.442-12.807,8.525-2.061,4.345-3.312,12.55,3.265,12.9,8.516.448,17.6-3.638,24.407-8.375C708.37,128.729,704.95,127.011,703.148,128.265ZM685.87,121.63a5.24,5.24,0,0,1,.588-.377,4.629,4.629,0,0,1,1.5-.639.185.185,0,0,1,.045.01l.01,0c.231.092.156.7-.374,1.807a10.064,10.064,0,0,1-1.885,3.042,19.016,19.016,0,0,1-4.289,3.8C682.127,126.412,683.649,122.9,685.87,121.63Z" transform="translate(-676.686 -116.609)"/>
        </g>
      </g>
    </g>
    <g transform="translate(4689.979 1611.493)">
      <g id="Gruppe_13902-2" data-name="Gruppe 13902" class="cls-3" transform="matrix(0.996, -0.087, 0.087, 0.996, -4606.979, -1608.416)">
        <path id="Pfad_9697-2" data-name="Pfad 9697" class="cls-4" d="M599.867,77.1c-.588-1.6-4.808-.378-4.251,1.139,2.7,7.349,3.072,14.538.432,21.953A29.245,29.245,0,0,1,594,105.033c-1.449,2.5-1.86,1.355-3.469-.741-2.332-3.039-3.742-6.753-5.39-10.182-.744-1.548-3.339-.476-4.119.472-3.235,3.933-4.51,9.264-6.709,13.779a14.9,14.9,0,0,1-2.14,3.757l-.009.01c-.788.573-1.1.236-1.175.126-.025-.048-.051-.1-.084-.147-.929-1.409-.98-3.961-1.135-5.578-1.117-11.682,1.792-25.553,9.483-34.636,1.65-1.948-2.44-2.035-3.448-.845-8.567,10.116-13.416,27.956-9.546,41,1.334,4.494,5.575,4.946,8.748,1.678,3.951-4.069,5.05-9.965,7.519-14.993,2.954,6.1,8.416,15.635,14.009,9.317,2.778-3.139,4.512-9.669,5.255-13.68C602.885,88.447,601.924,82.7,599.867,77.1Z" transform="translate(-564.908 -70.268)"/>
        <g id="Gruppe_7897-2" data-name="Gruppe 7897" transform="translate(36.921 15.307)">
          <path id="Pfad_9698-2" data-name="Pfad 9698" class="cls-4" d="M703.148,128.265a40.085,40.085,0,0,1-11.844,5.743c-3.652,1.051-10.292,3.619-10.226-2V132a2.917,2.917,0,0,0,2.627-.2c2.889-1.963,5.834-4.391,7.365-7.627.854-1.8,2.112-5.325.076-6.857-4.311-3.244-11.346,5.442-12.807,8.525-2.061,4.345-3.312,12.55,3.265,12.9,8.516.448,17.6-3.638,24.407-8.375C708.37,128.729,704.95,127.011,703.148,128.265ZM685.87,121.63a5.24,5.24,0,0,1,.588-.377,4.629,4.629,0,0,1,1.5-.639.185.185,0,0,1,.045.01l.01,0c.231.092.156.7-.374,1.807a10.064,10.064,0,0,1-1.885,3.042,19.016,19.016,0,0,1-4.289,3.8C682.127,126.412,683.649,122.9,685.87,121.63Z" transform="translate(-676.686 -116.609)"/>
        </g>
      </g>
    </g>
    <g transform="translate(4772.979 1611.493)">
      <g id="Gruppe_13902-3" data-name="Gruppe 13902" class="cls-3" transform="matrix(0.996, -0.087, 0.087, 0.996, -4606.979, -1608.416)">
        <path id="Pfad_9697-3" data-name="Pfad 9697" class="cls-4" d="M599.867,77.1c-.588-1.6-4.808-.378-4.251,1.139,2.7,7.349,3.072,14.538.432,21.953A29.245,29.245,0,0,1,594,105.033c-1.449,2.5-1.86,1.355-3.469-.741-2.332-3.039-3.742-6.753-5.39-10.182-.744-1.548-3.339-.476-4.119.472-3.235,3.933-4.51,9.264-6.709,13.779a14.9,14.9,0,0,1-2.14,3.757l-.009.01c-.788.573-1.1.236-1.175.126-.025-.048-.051-.1-.084-.147-.929-1.409-.98-3.961-1.135-5.578-1.117-11.682,1.792-25.553,9.483-34.636,1.65-1.948-2.44-2.035-3.448-.845-8.567,10.116-13.416,27.956-9.546,41,1.334,4.494,5.575,4.946,8.748,1.678,3.951-4.069,5.05-9.965,7.519-14.993,2.954,6.1,8.416,15.635,14.009,9.317,2.778-3.139,4.512-9.669,5.255-13.68C602.885,88.447,601.924,82.7,599.867,77.1Z" transform="translate(-564.908 -70.268)"/>
        <g id="Gruppe_7897-3" data-name="Gruppe 7897" transform="translate(36.921 15.307)">
          <path id="Pfad_9698-3" data-name="Pfad 9698" class="cls-4" d="M703.148,128.265a40.085,40.085,0,0,1-11.844,5.743c-3.652,1.051-10.292,3.619-10.226-2V132a2.917,2.917,0,0,0,2.627-.2c2.889-1.963,5.834-4.391,7.365-7.627.854-1.8,2.112-5.325.076-6.857-4.311-3.244-11.346,5.442-12.807,8.525-2.061,4.345-3.312,12.55,3.265,12.9,8.516.448,17.6-3.638,24.407-8.375C708.37,128.729,704.95,127.011,703.148,128.265ZM685.87,121.63a5.24,5.24,0,0,1,.588-.377,4.629,4.629,0,0,1,1.5-.639.185.185,0,0,1,.045.01l.01,0c.231.092.156.7-.374,1.807a10.064,10.064,0,0,1-1.885,3.042,19.016,19.016,0,0,1-4.289,3.8C682.127,126.412,683.649,122.9,685.87,121.63Z" transform="translate(-676.686 -116.609)"/>
        </g>
      </g>
    </g>
    <g transform="translate(4855.979 1611.493)">
      <g id="Gruppe_13902-4" data-name="Gruppe 13902" class="cls-3" transform="matrix(0.996, -0.087, 0.087, 0.996, -4606.979, -1608.416)">
        <path id="Pfad_9697-4" data-name="Pfad 9697" class="cls-4" d="M599.867,77.1c-.588-1.6-4.808-.378-4.251,1.139,2.7,7.349,3.072,14.538.432,21.953A29.245,29.245,0,0,1,594,105.033c-1.449,2.5-1.86,1.355-3.469-.741-2.332-3.039-3.742-6.753-5.39-10.182-.744-1.548-3.339-.476-4.119.472-3.235,3.933-4.51,9.264-6.709,13.779a14.9,14.9,0,0,1-2.14,3.757l-.009.01c-.788.573-1.1.236-1.175.126-.025-.048-.051-.1-.084-.147-.929-1.409-.98-3.961-1.135-5.578-1.117-11.682,1.792-25.553,9.483-34.636,1.65-1.948-2.44-2.035-3.448-.845-8.567,10.116-13.416,27.956-9.546,41,1.334,4.494,5.575,4.946,8.748,1.678,3.951-4.069,5.05-9.965,7.519-14.993,2.954,6.1,8.416,15.635,14.009,9.317,2.778-3.139,4.512-9.669,5.255-13.68C602.885,88.447,601.924,82.7,599.867,77.1Z" transform="translate(-564.908 -70.268)"/>
        <g id="Gruppe_7897-4" data-name="Gruppe 7897" transform="translate(36.921 15.307)">
          <path id="Pfad_9698-4" data-name="Pfad 9698" class="cls-4" d="M703.148,128.265a40.085,40.085,0,0,1-11.844,5.743c-3.652,1.051-10.292,3.619-10.226-2V132a2.917,2.917,0,0,0,2.627-.2c2.889-1.963,5.834-4.391,7.365-7.627.854-1.8,2.112-5.325.076-6.857-4.311-3.244-11.346,5.442-12.807,8.525-2.061,4.345-3.312,12.55,3.265,12.9,8.516.448,17.6-3.638,24.407-8.375C708.37,128.729,704.95,127.011,703.148,128.265ZM685.87,121.63a5.24,5.24,0,0,1,.588-.377,4.629,4.629,0,0,1,1.5-.639.185.185,0,0,1,.045.01l.01,0c.231.092.156.7-.374,1.807a10.064,10.064,0,0,1-1.885,3.042,19.016,19.016,0,0,1-4.289,3.8C682.127,126.412,683.649,122.9,685.87,121.63Z" transform="translate(-676.686 -116.609)"/>
        </g>
      </g>
    </g>
    <g transform="translate(4938.979 1611.493)">
      <g id="Gruppe_13902-5" data-name="Gruppe 13902" class="cls-3" transform="matrix(0.996, -0.087, 0.087, 0.996, -4606.979, -1608.416)">
        <path id="Pfad_9697-5" data-name="Pfad 9697" class="cls-4" d="M599.867,77.1c-.588-1.6-4.808-.378-4.251,1.139,2.7,7.349,3.072,14.538.432,21.953A29.245,29.245,0,0,1,594,105.033c-1.449,2.5-1.86,1.355-3.469-.741-2.332-3.039-3.742-6.753-5.39-10.182-.744-1.548-3.339-.476-4.119.472-3.235,3.933-4.51,9.264-6.709,13.779a14.9,14.9,0,0,1-2.14,3.757l-.009.01c-.788.573-1.1.236-1.175.126-.025-.048-.051-.1-.084-.147-.929-1.409-.98-3.961-1.135-5.578-1.117-11.682,1.792-25.553,9.483-34.636,1.65-1.948-2.44-2.035-3.448-.845-8.567,10.116-13.416,27.956-9.546,41,1.334,4.494,5.575,4.946,8.748,1.678,3.951-4.069,5.05-9.965,7.519-14.993,2.954,6.1,8.416,15.635,14.009,9.317,2.778-3.139,4.512-9.669,5.255-13.68C602.885,88.447,601.924,82.7,599.867,77.1Z" transform="translate(-564.908 -70.268)"/>
        <g id="Gruppe_7897-5" data-name="Gruppe 7897" transform="translate(36.921 15.307)">
          <path id="Pfad_9698-5" data-name="Pfad 9698" class="cls-4" d="M703.148,128.265a40.085,40.085,0,0,1-11.844,5.743c-3.652,1.051-10.292,3.619-10.226-2V132a2.917,2.917,0,0,0,2.627-.2c2.889-1.963,5.834-4.391,7.365-7.627.854-1.8,2.112-5.325.076-6.857-4.311-3.244-11.346,5.442-12.807,8.525-2.061,4.345-3.312,12.55,3.265,12.9,8.516.448,17.6-3.638,24.407-8.375C708.37,128.729,704.95,127.011,703.148,128.265ZM685.87,121.63a5.24,5.24,0,0,1,.588-.377,4.629,4.629,0,0,1,1.5-.639.185.185,0,0,1,.045.01l.01,0c.231.092.156.7-.374,1.807a10.064,10.064,0,0,1-1.885,3.042,19.016,19.016,0,0,1-4.289,3.8C682.127,126.412,683.649,122.9,685.87,121.63Z" transform="translate(-676.686 -116.609)"/>
        </g>
      </g>
    </g>
    <g transform="translate(4606.979 1674.493)">
      <g id="Gruppe_13902-6" data-name="Gruppe 13902" class="cls-3" transform="matrix(0.996, -0.087, 0.087, 0.996, -4606.979, -1608.416)">
        <path id="Pfad_9697-6" data-name="Pfad 9697" class="cls-4" d="M599.867,77.1c-.588-1.6-4.808-.378-4.251,1.139,2.7,7.349,3.072,14.538.432,21.953A29.245,29.245,0,0,1,594,105.033c-1.449,2.5-1.86,1.355-3.469-.741-2.332-3.039-3.742-6.753-5.39-10.182-.744-1.548-3.339-.476-4.119.472-3.235,3.933-4.51,9.264-6.709,13.779a14.9,14.9,0,0,1-2.14,3.757l-.009.01c-.788.573-1.1.236-1.175.126-.025-.048-.051-.1-.084-.147-.929-1.409-.98-3.961-1.135-5.578-1.117-11.682,1.792-25.553,9.483-34.636,1.65-1.948-2.44-2.035-3.448-.845-8.567,10.116-13.416,27.956-9.546,41,1.334,4.494,5.575,4.946,8.748,1.678,3.951-4.069,5.05-9.965,7.519-14.993,2.954,6.1,8.416,15.635,14.009,9.317,2.778-3.139,4.512-9.669,5.255-13.68C602.885,88.447,601.924,82.7,599.867,77.1Z" transform="translate(-564.908 -70.268)"/>
        <g id="Gruppe_7897-6" data-name="Gruppe 7897" transform="translate(36.921 15.307)">
          <path id="Pfad_9698-6" data-name="Pfad 9698" class="cls-4" d="M703.148,128.265a40.085,40.085,0,0,1-11.844,5.743c-3.652,1.051-10.292,3.619-10.226-2V132a2.917,2.917,0,0,0,2.627-.2c2.889-1.963,5.834-4.391,7.365-7.627.854-1.8,2.112-5.325.076-6.857-4.311-3.244-11.346,5.442-12.807,8.525-2.061,4.345-3.312,12.55,3.265,12.9,8.516.448,17.6-3.638,24.407-8.375C708.37,128.729,704.95,127.011,703.148,128.265ZM685.87,121.63a5.24,5.24,0,0,1,.588-.377,4.629,4.629,0,0,1,1.5-.639.185.185,0,0,1,.045.01l.01,0c.231.092.156.7-.374,1.807a10.064,10.064,0,0,1-1.885,3.042,19.016,19.016,0,0,1-4.289,3.8C682.127,126.412,683.649,122.9,685.87,121.63Z" transform="translate(-676.686 -116.609)"/>
        </g>
      </g>
    </g>
    <g transform="translate(4689.979 1674.493)">
      <g id="Gruppe_13902-7" data-name="Gruppe 13902" class="cls-3" transform="matrix(0.996, -0.087, 0.087, 0.996, -4606.979, -1608.416)">
        <path id="Pfad_9697-7" data-name="Pfad 9697" class="cls-4" d="M599.867,77.1c-.588-1.6-4.808-.378-4.251,1.139,2.7,7.349,3.072,14.538.432,21.953A29.245,29.245,0,0,1,594,105.033c-1.449,2.5-1.86,1.355-3.469-.741-2.332-3.039-3.742-6.753-5.39-10.182-.744-1.548-3.339-.476-4.119.472-3.235,3.933-4.51,9.264-6.709,13.779a14.9,14.9,0,0,1-2.14,3.757l-.009.01c-.788.573-1.1.236-1.175.126-.025-.048-.051-.1-.084-.147-.929-1.409-.98-3.961-1.135-5.578-1.117-11.682,1.792-25.553,9.483-34.636,1.65-1.948-2.44-2.035-3.448-.845-8.567,10.116-13.416,27.956-9.546,41,1.334,4.494,5.575,4.946,8.748,1.678,3.951-4.069,5.05-9.965,7.519-14.993,2.954,6.1,8.416,15.635,14.009,9.317,2.778-3.139,4.512-9.669,5.255-13.68C602.885,88.447,601.924,82.7,599.867,77.1Z" transform="translate(-564.908 -70.268)"/>
        <g id="Gruppe_7897-7" data-name="Gruppe 7897" transform="translate(36.921 15.307)">
          <path id="Pfad_9698-7" data-name="Pfad 9698" class="cls-4" d="M703.148,128.265a40.085,40.085,0,0,1-11.844,5.743c-3.652,1.051-10.292,3.619-10.226-2V132a2.917,2.917,0,0,0,2.627-.2c2.889-1.963,5.834-4.391,7.365-7.627.854-1.8,2.112-5.325.076-6.857-4.311-3.244-11.346,5.442-12.807,8.525-2.061,4.345-3.312,12.55,3.265,12.9,8.516.448,17.6-3.638,24.407-8.375C708.37,128.729,704.95,127.011,703.148,128.265ZM685.87,121.63a5.24,5.24,0,0,1,.588-.377,4.629,4.629,0,0,1,1.5-.639.185.185,0,0,1,.045.01l.01,0c.231.092.156.7-.374,1.807a10.064,10.064,0,0,1-1.885,3.042,19.016,19.016,0,0,1-4.289,3.8C682.127,126.412,683.649,122.9,685.87,121.63Z" transform="translate(-676.686 -116.609)"/>
        </g>
      </g>
    </g>
    <g transform="translate(4772.979 1674.493)">
      <g id="Gruppe_13902-8" data-name="Gruppe 13902" class="cls-3" transform="matrix(0.996, -0.087, 0.087, 0.996, -4606.979, -1608.416)">
        <path id="Pfad_9697-8" data-name="Pfad 9697" class="cls-4" d="M599.867,77.1c-.588-1.6-4.808-.378-4.251,1.139,2.7,7.349,3.072,14.538.432,21.953A29.245,29.245,0,0,1,594,105.033c-1.449,2.5-1.86,1.355-3.469-.741-2.332-3.039-3.742-6.753-5.39-10.182-.744-1.548-3.339-.476-4.119.472-3.235,3.933-4.51,9.264-6.709,13.779a14.9,14.9,0,0,1-2.14,3.757l-.009.01c-.788.573-1.1.236-1.175.126-.025-.048-.051-.1-.084-.147-.929-1.409-.98-3.961-1.135-5.578-1.117-11.682,1.792-25.553,9.483-34.636,1.65-1.948-2.44-2.035-3.448-.845-8.567,10.116-13.416,27.956-9.546,41,1.334,4.494,5.575,4.946,8.748,1.678,3.951-4.069,5.05-9.965,7.519-14.993,2.954,6.1,8.416,15.635,14.009,9.317,2.778-3.139,4.512-9.669,5.255-13.68C602.885,88.447,601.924,82.7,599.867,77.1Z" transform="translate(-564.908 -70.268)"/>
        <g id="Gruppe_7897-8" data-name="Gruppe 7897" transform="translate(36.921 15.307)">
          <path id="Pfad_9698-8" data-name="Pfad 9698" class="cls-4" d="M703.148,128.265a40.085,40.085,0,0,1-11.844,5.743c-3.652,1.051-10.292,3.619-10.226-2V132a2.917,2.917,0,0,0,2.627-.2c2.889-1.963,5.834-4.391,7.365-7.627.854-1.8,2.112-5.325.076-6.857-4.311-3.244-11.346,5.442-12.807,8.525-2.061,4.345-3.312,12.55,3.265,12.9,8.516.448,17.6-3.638,24.407-8.375C708.37,128.729,704.95,127.011,703.148,128.265ZM685.87,121.63a5.24,5.24,0,0,1,.588-.377,4.629,4.629,0,0,1,1.5-.639.185.185,0,0,1,.045.01l.01,0c.231.092.156.7-.374,1.807a10.064,10.064,0,0,1-1.885,3.042,19.016,19.016,0,0,1-4.289,3.8C682.127,126.412,683.649,122.9,685.87,121.63Z" transform="translate(-676.686 -116.609)"/>
        </g>
      </g>
    </g>
    <g transform="translate(4855.979 1674.493)">
      <g id="Gruppe_13902-9" data-name="Gruppe 13902" class="cls-3" transform="matrix(0.996, -0.087, 0.087, 0.996, -4606.979, -1608.416)">
        <path id="Pfad_9697-9" data-name="Pfad 9697" class="cls-4" d="M599.867,77.1c-.588-1.6-4.808-.378-4.251,1.139,2.7,7.349,3.072,14.538.432,21.953A29.245,29.245,0,0,1,594,105.033c-1.449,2.5-1.86,1.355-3.469-.741-2.332-3.039-3.742-6.753-5.39-10.182-.744-1.548-3.339-.476-4.119.472-3.235,3.933-4.51,9.264-6.709,13.779a14.9,14.9,0,0,1-2.14,3.757l-.009.01c-.788.573-1.1.236-1.175.126-.025-.048-.051-.1-.084-.147-.929-1.409-.98-3.961-1.135-5.578-1.117-11.682,1.792-25.553,9.483-34.636,1.65-1.948-2.44-2.035-3.448-.845-8.567,10.116-13.416,27.956-9.546,41,1.334,4.494,5.575,4.946,8.748,1.678,3.951-4.069,5.05-9.965,7.519-14.993,2.954,6.1,8.416,15.635,14.009,9.317,2.778-3.139,4.512-9.669,5.255-13.68C602.885,88.447,601.924,82.7,599.867,77.1Z" transform="translate(-564.908 -70.268)"/>
        <g id="Gruppe_7897-9" data-name="Gruppe 7897" transform="translate(36.921 15.307)">
          <path id="Pfad_9698-9" data-name="Pfad 9698" class="cls-4" d="M703.148,128.265a40.085,40.085,0,0,1-11.844,5.743c-3.652,1.051-10.292,3.619-10.226-2V132a2.917,2.917,0,0,0,2.627-.2c2.889-1.963,5.834-4.391,7.365-7.627.854-1.8,2.112-5.325.076-6.857-4.311-3.244-11.346,5.442-12.807,8.525-2.061,4.345-3.312,12.55,3.265,12.9,8.516.448,17.6-3.638,24.407-8.375C708.37,128.729,704.95,127.011,703.148,128.265ZM685.87,121.63a5.24,5.24,0,0,1,.588-.377,4.629,4.629,0,0,1,1.5-.639.185.185,0,0,1,.045.01l.01,0c.231.092.156.7-.374,1.807a10.064,10.064,0,0,1-1.885,3.042,19.016,19.016,0,0,1-4.289,3.8C682.127,126.412,683.649,122.9,685.87,121.63Z" transform="translate(-676.686 -116.609)"/>
        </g>
      </g>
    </g>
    <g transform="translate(4938.979 1674.493)">
      <g id="Gruppe_13902-10" data-name="Gruppe 13902" class="cls-3" transform="matrix(0.996, -0.087, 0.087, 0.996, -4606.979, -1608.416)">
        <path id="Pfad_9697-10" data-name="Pfad 9697" class="cls-4" d="M599.867,77.1c-.588-1.6-4.808-.378-4.251,1.139,2.7,7.349,3.072,14.538.432,21.953A29.245,29.245,0,0,1,594,105.033c-1.449,2.5-1.86,1.355-3.469-.741-2.332-3.039-3.742-6.753-5.39-10.182-.744-1.548-3.339-.476-4.119.472-3.235,3.933-4.51,9.264-6.709,13.779a14.9,14.9,0,0,1-2.14,3.757l-.009.01c-.788.573-1.1.236-1.175.126-.025-.048-.051-.1-.084-.147-.929-1.409-.98-3.961-1.135-5.578-1.117-11.682,1.792-25.553,9.483-34.636,1.65-1.948-2.44-2.035-3.448-.845-8.567,10.116-13.416,27.956-9.546,41,1.334,4.494,5.575,4.946,8.748,1.678,3.951-4.069,5.05-9.965,7.519-14.993,2.954,6.1,8.416,15.635,14.009,9.317,2.778-3.139,4.512-9.669,5.255-13.68C602.885,88.447,601.924,82.7,599.867,77.1Z" transform="translate(-564.908 -70.268)"/>
        <g id="Gruppe_7897-10" data-name="Gruppe 7897" transform="translate(36.921 15.307)">
          <path id="Pfad_9698-10" data-name="Pfad 9698" class="cls-4" d="M703.148,128.265a40.085,40.085,0,0,1-11.844,5.743c-3.652,1.051-10.292,3.619-10.226-2V132a2.917,2.917,0,0,0,2.627-.2c2.889-1.963,5.834-4.391,7.365-7.627.854-1.8,2.112-5.325.076-6.857-4.311-3.244-11.346,5.442-12.807,8.525-2.061,4.345-3.312,12.55,3.265,12.9,8.516.448,17.6-3.638,24.407-8.375C708.37,128.729,704.95,127.011,703.148,128.265ZM685.87,121.63a5.24,5.24,0,0,1,.588-.377,4.629,4.629,0,0,1,1.5-.639.185.185,0,0,1,.045.01l.01,0c.231.092.156.7-.374,1.807a10.064,10.064,0,0,1-1.885,3.042,19.016,19.016,0,0,1-4.289,3.8C682.127,126.412,683.649,122.9,685.87,121.63Z" transform="translate(-676.686 -116.609)"/>
        </g>
      </g>
    </g>
    <g transform="translate(4606.979 1737.493)">
      <g id="Gruppe_13902-11" data-name="Gruppe 13902" class="cls-3" transform="matrix(0.996, -0.087, 0.087, 0.996, -4606.979, -1608.416)">
        <path id="Pfad_9697-11" data-name="Pfad 9697" class="cls-4" d="M599.867,77.1c-.588-1.6-4.808-.378-4.251,1.139,2.7,7.349,3.072,14.538.432,21.953A29.245,29.245,0,0,1,594,105.033c-1.449,2.5-1.86,1.355-3.469-.741-2.332-3.039-3.742-6.753-5.39-10.182-.744-1.548-3.339-.476-4.119.472-3.235,3.933-4.51,9.264-6.709,13.779a14.9,14.9,0,0,1-2.14,3.757l-.009.01c-.788.573-1.1.236-1.175.126-.025-.048-.051-.1-.084-.147-.929-1.409-.98-3.961-1.135-5.578-1.117-11.682,1.792-25.553,9.483-34.636,1.65-1.948-2.44-2.035-3.448-.845-8.567,10.116-13.416,27.956-9.546,41,1.334,4.494,5.575,4.946,8.748,1.678,3.951-4.069,5.05-9.965,7.519-14.993,2.954,6.1,8.416,15.635,14.009,9.317,2.778-3.139,4.512-9.669,5.255-13.68C602.885,88.447,601.924,82.7,599.867,77.1Z" transform="translate(-564.908 -70.268)"/>
        <g id="Gruppe_7897-11" data-name="Gruppe 7897" transform="translate(36.921 15.307)">
          <path id="Pfad_9698-11" data-name="Pfad 9698" class="cls-4" d="M703.148,128.265a40.085,40.085,0,0,1-11.844,5.743c-3.652,1.051-10.292,3.619-10.226-2V132a2.917,2.917,0,0,0,2.627-.2c2.889-1.963,5.834-4.391,7.365-7.627.854-1.8,2.112-5.325.076-6.857-4.311-3.244-11.346,5.442-12.807,8.525-2.061,4.345-3.312,12.55,3.265,12.9,8.516.448,17.6-3.638,24.407-8.375C708.37,128.729,704.95,127.011,703.148,128.265ZM685.87,121.63a5.24,5.24,0,0,1,.588-.377,4.629,4.629,0,0,1,1.5-.639.185.185,0,0,1,.045.01l.01,0c.231.092.156.7-.374,1.807a10.064,10.064,0,0,1-1.885,3.042,19.016,19.016,0,0,1-4.289,3.8C682.127,126.412,683.649,122.9,685.87,121.63Z" transform="translate(-676.686 -116.609)"/>
        </g>
      </g>
    </g>
    <g transform="translate(4689.979 1737.493)">
      <g id="Gruppe_13902-12" data-name="Gruppe 13902" class="cls-3" transform="matrix(0.996, -0.087, 0.087, 0.996, -4606.979, -1608.416)">
        <path id="Pfad_9697-12" data-name="Pfad 9697" class="cls-4" d="M599.867,77.1c-.588-1.6-4.808-.378-4.251,1.139,2.7,7.349,3.072,14.538.432,21.953A29.245,29.245,0,0,1,594,105.033c-1.449,2.5-1.86,1.355-3.469-.741-2.332-3.039-3.742-6.753-5.39-10.182-.744-1.548-3.339-.476-4.119.472-3.235,3.933-4.51,9.264-6.709,13.779a14.9,14.9,0,0,1-2.14,3.757l-.009.01c-.788.573-1.1.236-1.175.126-.025-.048-.051-.1-.084-.147-.929-1.409-.98-3.961-1.135-5.578-1.117-11.682,1.792-25.553,9.483-34.636,1.65-1.948-2.44-2.035-3.448-.845-8.567,10.116-13.416,27.956-9.546,41,1.334,4.494,5.575,4.946,8.748,1.678,3.951-4.069,5.05-9.965,7.519-14.993,2.954,6.1,8.416,15.635,14.009,9.317,2.778-3.139,4.512-9.669,5.255-13.68C602.885,88.447,601.924,82.7,599.867,77.1Z" transform="translate(-564.908 -70.268)"/>
        <g id="Gruppe_7897-12" data-name="Gruppe 7897" transform="translate(36.921 15.307)">
          <path id="Pfad_9698-12" data-name="Pfad 9698" class="cls-4" d="M703.148,128.265a40.085,40.085,0,0,1-11.844,5.743c-3.652,1.051-10.292,3.619-10.226-2V132a2.917,2.917,0,0,0,2.627-.2c2.889-1.963,5.834-4.391,7.365-7.627.854-1.8,2.112-5.325.076-6.857-4.311-3.244-11.346,5.442-12.807,8.525-2.061,4.345-3.312,12.55,3.265,12.9,8.516.448,17.6-3.638,24.407-8.375C708.37,128.729,704.95,127.011,703.148,128.265ZM685.87,121.63a5.24,5.24,0,0,1,.588-.377,4.629,4.629,0,0,1,1.5-.639.185.185,0,0,1,.045.01l.01,0c.231.092.156.7-.374,1.807a10.064,10.064,0,0,1-1.885,3.042,19.016,19.016,0,0,1-4.289,3.8C682.127,126.412,683.649,122.9,685.87,121.63Z" transform="translate(-676.686 -116.609)"/>
        </g>
      </g>
    </g>
    <g transform="translate(4772.979 1737.493)">
      <g id="Gruppe_13902-13" data-name="Gruppe 13902" class="cls-3" transform="matrix(0.996, -0.087, 0.087, 0.996, -4606.979, -1608.416)">
        <path id="Pfad_9697-13" data-name="Pfad 9697" class="cls-4" d="M599.867,77.1c-.588-1.6-4.808-.378-4.251,1.139,2.7,7.349,3.072,14.538.432,21.953A29.245,29.245,0,0,1,594,105.033c-1.449,2.5-1.86,1.355-3.469-.741-2.332-3.039-3.742-6.753-5.39-10.182-.744-1.548-3.339-.476-4.119.472-3.235,3.933-4.51,9.264-6.709,13.779a14.9,14.9,0,0,1-2.14,3.757l-.009.01c-.788.573-1.1.236-1.175.126-.025-.048-.051-.1-.084-.147-.929-1.409-.98-3.961-1.135-5.578-1.117-11.682,1.792-25.553,9.483-34.636,1.65-1.948-2.44-2.035-3.448-.845-8.567,10.116-13.416,27.956-9.546,41,1.334,4.494,5.575,4.946,8.748,1.678,3.951-4.069,5.05-9.965,7.519-14.993,2.954,6.1,8.416,15.635,14.009,9.317,2.778-3.139,4.512-9.669,5.255-13.68C602.885,88.447,601.924,82.7,599.867,77.1Z" transform="translate(-564.908 -70.268)"/>
        <g id="Gruppe_7897-13" data-name="Gruppe 7897" transform="translate(36.921 15.307)">
          <path id="Pfad_9698-13" data-name="Pfad 9698" class="cls-4" d="M703.148,128.265a40.085,40.085,0,0,1-11.844,5.743c-3.652,1.051-10.292,3.619-10.226-2V132a2.917,2.917,0,0,0,2.627-.2c2.889-1.963,5.834-4.391,7.365-7.627.854-1.8,2.112-5.325.076-6.857-4.311-3.244-11.346,5.442-12.807,8.525-2.061,4.345-3.312,12.55,3.265,12.9,8.516.448,17.6-3.638,24.407-8.375C708.37,128.729,704.95,127.011,703.148,128.265ZM685.87,121.63a5.24,5.24,0,0,1,.588-.377,4.629,4.629,0,0,1,1.5-.639.185.185,0,0,1,.045.01l.01,0c.231.092.156.7-.374,1.807a10.064,10.064,0,0,1-1.885,3.042,19.016,19.016,0,0,1-4.289,3.8C682.127,126.412,683.649,122.9,685.87,121.63Z" transform="translate(-676.686 -116.609)"/>
        </g>
      </g>
    </g>
    <g transform="translate(4855.979 1737.493)">
      <g id="Gruppe_13902-14" data-name="Gruppe 13902" class="cls-3" transform="matrix(0.996, -0.087, 0.087, 0.996, -4606.979, -1608.416)">
        <path id="Pfad_9697-14" data-name="Pfad 9697" class="cls-4" d="M599.867,77.1c-.588-1.6-4.808-.378-4.251,1.139,2.7,7.349,3.072,14.538.432,21.953A29.245,29.245,0,0,1,594,105.033c-1.449,2.5-1.86,1.355-3.469-.741-2.332-3.039-3.742-6.753-5.39-10.182-.744-1.548-3.339-.476-4.119.472-3.235,3.933-4.51,9.264-6.709,13.779a14.9,14.9,0,0,1-2.14,3.757l-.009.01c-.788.573-1.1.236-1.175.126-.025-.048-.051-.1-.084-.147-.929-1.409-.98-3.961-1.135-5.578-1.117-11.682,1.792-25.553,9.483-34.636,1.65-1.948-2.44-2.035-3.448-.845-8.567,10.116-13.416,27.956-9.546,41,1.334,4.494,5.575,4.946,8.748,1.678,3.951-4.069,5.05-9.965,7.519-14.993,2.954,6.1,8.416,15.635,14.009,9.317,2.778-3.139,4.512-9.669,5.255-13.68C602.885,88.447,601.924,82.7,599.867,77.1Z" transform="translate(-564.908 -70.268)"/>
        <g id="Gruppe_7897-14" data-name="Gruppe 7897" transform="translate(36.921 15.307)">
          <path id="Pfad_9698-14" data-name="Pfad 9698" class="cls-4" d="M703.148,128.265a40.085,40.085,0,0,1-11.844,5.743c-3.652,1.051-10.292,3.619-10.226-2V132a2.917,2.917,0,0,0,2.627-.2c2.889-1.963,5.834-4.391,7.365-7.627.854-1.8,2.112-5.325.076-6.857-4.311-3.244-11.346,5.442-12.807,8.525-2.061,4.345-3.312,12.55,3.265,12.9,8.516.448,17.6-3.638,24.407-8.375C708.37,128.729,704.95,127.011,703.148,128.265ZM685.87,121.63a5.24,5.24,0,0,1,.588-.377,4.629,4.629,0,0,1,1.5-.639.185.185,0,0,1,.045.01l.01,0c.231.092.156.7-.374,1.807a10.064,10.064,0,0,1-1.885,3.042,19.016,19.016,0,0,1-4.289,3.8C682.127,126.412,683.649,122.9,685.87,121.63Z" transform="translate(-676.686 -116.609)"/>
        </g>
      </g>
    </g>
    <g transform="translate(4938.979 1737.493)">
      <g id="Gruppe_13902-15" data-name="Gruppe 13902" class="cls-3" transform="matrix(0.996, -0.087, 0.087, 0.996, -4606.979, -1608.416)">
        <path id="Pfad_9697-15" data-name="Pfad 9697" class="cls-4" d="M599.867,77.1c-.588-1.6-4.808-.378-4.251,1.139,2.7,7.349,3.072,14.538.432,21.953A29.245,29.245,0,0,1,594,105.033c-1.449,2.5-1.86,1.355-3.469-.741-2.332-3.039-3.742-6.753-5.39-10.182-.744-1.548-3.339-.476-4.119.472-3.235,3.933-4.51,9.264-6.709,13.779a14.9,14.9,0,0,1-2.14,3.757l-.009.01c-.788.573-1.1.236-1.175.126-.025-.048-.051-.1-.084-.147-.929-1.409-.98-3.961-1.135-5.578-1.117-11.682,1.792-25.553,9.483-34.636,1.65-1.948-2.44-2.035-3.448-.845-8.567,10.116-13.416,27.956-9.546,41,1.334,4.494,5.575,4.946,8.748,1.678,3.951-4.069,5.05-9.965,7.519-14.993,2.954,6.1,8.416,15.635,14.009,9.317,2.778-3.139,4.512-9.669,5.255-13.68C602.885,88.447,601.924,82.7,599.867,77.1Z" transform="translate(-564.908 -70.268)"/>
        <g id="Gruppe_7897-15" data-name="Gruppe 7897" transform="translate(36.921 15.307)">
          <path id="Pfad_9698-15" data-name="Pfad 9698" class="cls-4" d="M703.148,128.265a40.085,40.085,0,0,1-11.844,5.743c-3.652,1.051-10.292,3.619-10.226-2V132a2.917,2.917,0,0,0,2.627-.2c2.889-1.963,5.834-4.391,7.365-7.627.854-1.8,2.112-5.325.076-6.857-4.311-3.244-11.346,5.442-12.807,8.525-2.061,4.345-3.312,12.55,3.265,12.9,8.516.448,17.6-3.638,24.407-8.375C708.37,128.729,704.95,127.011,703.148,128.265ZM685.87,121.63a5.24,5.24,0,0,1,.588-.377,4.629,4.629,0,0,1,1.5-.639.185.185,0,0,1,.045.01l.01,0c.231.092.156.7-.374,1.807a10.064,10.064,0,0,1-1.885,3.042,19.016,19.016,0,0,1-4.289,3.8C682.127,126.412,683.649,122.9,685.87,121.63Z" transform="translate(-676.686 -116.609)"/>
        </g>
      </g>
    </g>
    <g transform="translate(4606.979 1800.493)">
      <g id="Gruppe_13902-16" data-name="Gruppe 13902" class="cls-3" transform="matrix(0.996, -0.087, 0.087, 0.996, -4606.979, -1608.416)">
        <path id="Pfad_9697-16" data-name="Pfad 9697" class="cls-4" d="M599.867,77.1c-.588-1.6-4.808-.378-4.251,1.139,2.7,7.349,3.072,14.538.432,21.953A29.245,29.245,0,0,1,594,105.033c-1.449,2.5-1.86,1.355-3.469-.741-2.332-3.039-3.742-6.753-5.39-10.182-.744-1.548-3.339-.476-4.119.472-3.235,3.933-4.51,9.264-6.709,13.779a14.9,14.9,0,0,1-2.14,3.757l-.009.01c-.788.573-1.1.236-1.175.126-.025-.048-.051-.1-.084-.147-.929-1.409-.98-3.961-1.135-5.578-1.117-11.682,1.792-25.553,9.483-34.636,1.65-1.948-2.44-2.035-3.448-.845-8.567,10.116-13.416,27.956-9.546,41,1.334,4.494,5.575,4.946,8.748,1.678,3.951-4.069,5.05-9.965,7.519-14.993,2.954,6.1,8.416,15.635,14.009,9.317,2.778-3.139,4.512-9.669,5.255-13.68C602.885,88.447,601.924,82.7,599.867,77.1Z" transform="translate(-564.908 -70.268)"/>
        <g id="Gruppe_7897-16" data-name="Gruppe 7897" transform="translate(36.921 15.307)">
          <path id="Pfad_9698-16" data-name="Pfad 9698" class="cls-4" d="M703.148,128.265a40.085,40.085,0,0,1-11.844,5.743c-3.652,1.051-10.292,3.619-10.226-2V132a2.917,2.917,0,0,0,2.627-.2c2.889-1.963,5.834-4.391,7.365-7.627.854-1.8,2.112-5.325.076-6.857-4.311-3.244-11.346,5.442-12.807,8.525-2.061,4.345-3.312,12.55,3.265,12.9,8.516.448,17.6-3.638,24.407-8.375C708.37,128.729,704.95,127.011,703.148,128.265ZM685.87,121.63a5.24,5.24,0,0,1,.588-.377,4.629,4.629,0,0,1,1.5-.639.185.185,0,0,1,.045.01l.01,0c.231.092.156.7-.374,1.807a10.064,10.064,0,0,1-1.885,3.042,19.016,19.016,0,0,1-4.289,3.8C682.127,126.412,683.649,122.9,685.87,121.63Z" transform="translate(-676.686 -116.609)"/>
        </g>
      </g>
    </g>
    <g transform="translate(4689.979 1800.493)">
      <g id="Gruppe_13902-17" data-name="Gruppe 13902" class="cls-3" transform="matrix(0.996, -0.087, 0.087, 0.996, -4606.979, -1608.416)">
        <path id="Pfad_9697-17" data-name="Pfad 9697" class="cls-4" d="M599.867,77.1c-.588-1.6-4.808-.378-4.251,1.139,2.7,7.349,3.072,14.538.432,21.953A29.245,29.245,0,0,1,594,105.033c-1.449,2.5-1.86,1.355-3.469-.741-2.332-3.039-3.742-6.753-5.39-10.182-.744-1.548-3.339-.476-4.119.472-3.235,3.933-4.51,9.264-6.709,13.779a14.9,14.9,0,0,1-2.14,3.757l-.009.01c-.788.573-1.1.236-1.175.126-.025-.048-.051-.1-.084-.147-.929-1.409-.98-3.961-1.135-5.578-1.117-11.682,1.792-25.553,9.483-34.636,1.65-1.948-2.44-2.035-3.448-.845-8.567,10.116-13.416,27.956-9.546,41,1.334,4.494,5.575,4.946,8.748,1.678,3.951-4.069,5.05-9.965,7.519-14.993,2.954,6.1,8.416,15.635,14.009,9.317,2.778-3.139,4.512-9.669,5.255-13.68C602.885,88.447,601.924,82.7,599.867,77.1Z" transform="translate(-564.908 -70.268)"/>
        <g id="Gruppe_7897-17" data-name="Gruppe 7897" transform="translate(36.921 15.307)">
          <path id="Pfad_9698-17" data-name="Pfad 9698" class="cls-4" d="M703.148,128.265a40.085,40.085,0,0,1-11.844,5.743c-3.652,1.051-10.292,3.619-10.226-2V132a2.917,2.917,0,0,0,2.627-.2c2.889-1.963,5.834-4.391,7.365-7.627.854-1.8,2.112-5.325.076-6.857-4.311-3.244-11.346,5.442-12.807,8.525-2.061,4.345-3.312,12.55,3.265,12.9,8.516.448,17.6-3.638,24.407-8.375C708.37,128.729,704.95,127.011,703.148,128.265ZM685.87,121.63a5.24,5.24,0,0,1,.588-.377,4.629,4.629,0,0,1,1.5-.639.185.185,0,0,1,.045.01l.01,0c.231.092.156.7-.374,1.807a10.064,10.064,0,0,1-1.885,3.042,19.016,19.016,0,0,1-4.289,3.8C682.127,126.412,683.649,122.9,685.87,121.63Z" transform="translate(-676.686 -116.609)"/>
        </g>
      </g>
    </g>
    <g transform="translate(4772.979 1800.493)">
      <g id="Gruppe_13902-18" data-name="Gruppe 13902" class="cls-3" transform="matrix(0.996, -0.087, 0.087, 0.996, -4606.979, -1608.416)">
        <path id="Pfad_9697-18" data-name="Pfad 9697" class="cls-4" d="M599.867,77.1c-.588-1.6-4.808-.378-4.251,1.139,2.7,7.349,3.072,14.538.432,21.953A29.245,29.245,0,0,1,594,105.033c-1.449,2.5-1.86,1.355-3.469-.741-2.332-3.039-3.742-6.753-5.39-10.182-.744-1.548-3.339-.476-4.119.472-3.235,3.933-4.51,9.264-6.709,13.779a14.9,14.9,0,0,1-2.14,3.757l-.009.01c-.788.573-1.1.236-1.175.126-.025-.048-.051-.1-.084-.147-.929-1.409-.98-3.961-1.135-5.578-1.117-11.682,1.792-25.553,9.483-34.636,1.65-1.948-2.44-2.035-3.448-.845-8.567,10.116-13.416,27.956-9.546,41,1.334,4.494,5.575,4.946,8.748,1.678,3.951-4.069,5.05-9.965,7.519-14.993,2.954,6.1,8.416,15.635,14.009,9.317,2.778-3.139,4.512-9.669,5.255-13.68C602.885,88.447,601.924,82.7,599.867,77.1Z" transform="translate(-564.908 -70.268)"/>
        <g id="Gruppe_7897-18" data-name="Gruppe 7897" transform="translate(36.921 15.307)">
          <path id="Pfad_9698-18" data-name="Pfad 9698" class="cls-4" d="M703.148,128.265a40.085,40.085,0,0,1-11.844,5.743c-3.652,1.051-10.292,3.619-10.226-2V132a2.917,2.917,0,0,0,2.627-.2c2.889-1.963,5.834-4.391,7.365-7.627.854-1.8,2.112-5.325.076-6.857-4.311-3.244-11.346,5.442-12.807,8.525-2.061,4.345-3.312,12.55,3.265,12.9,8.516.448,17.6-3.638,24.407-8.375C708.37,128.729,704.95,127.011,703.148,128.265ZM685.87,121.63a5.24,5.24,0,0,1,.588-.377,4.629,4.629,0,0,1,1.5-.639.185.185,0,0,1,.045.01l.01,0c.231.092.156.7-.374,1.807a10.064,10.064,0,0,1-1.885,3.042,19.016,19.016,0,0,1-4.289,3.8C682.127,126.412,683.649,122.9,685.87,121.63Z" transform="translate(-676.686 -116.609)"/>
        </g>
      </g>
    </g>
    <g transform="translate(4855.979 1800.493)">
      <g id="Gruppe_13902-19" data-name="Gruppe 13902" class="cls-3" transform="matrix(0.996, -0.087, 0.087, 0.996, -4606.979, -1608.416)">
        <path id="Pfad_9697-19" data-name="Pfad 9697" class="cls-4" d="M599.867,77.1c-.588-1.6-4.808-.378-4.251,1.139,2.7,7.349,3.072,14.538.432,21.953A29.245,29.245,0,0,1,594,105.033c-1.449,2.5-1.86,1.355-3.469-.741-2.332-3.039-3.742-6.753-5.39-10.182-.744-1.548-3.339-.476-4.119.472-3.235,3.933-4.51,9.264-6.709,13.779a14.9,14.9,0,0,1-2.14,3.757l-.009.01c-.788.573-1.1.236-1.175.126-.025-.048-.051-.1-.084-.147-.929-1.409-.98-3.961-1.135-5.578-1.117-11.682,1.792-25.553,9.483-34.636,1.65-1.948-2.44-2.035-3.448-.845-8.567,10.116-13.416,27.956-9.546,41,1.334,4.494,5.575,4.946,8.748,1.678,3.951-4.069,5.05-9.965,7.519-14.993,2.954,6.1,8.416,15.635,14.009,9.317,2.778-3.139,4.512-9.669,5.255-13.68C602.885,88.447,601.924,82.7,599.867,77.1Z" transform="translate(-564.908 -70.268)"/>
        <g id="Gruppe_7897-19" data-name="Gruppe 7897" transform="translate(36.921 15.307)">
          <path id="Pfad_9698-19" data-name="Pfad 9698" class="cls-4" d="M703.148,128.265a40.085,40.085,0,0,1-11.844,5.743c-3.652,1.051-10.292,3.619-10.226-2V132a2.917,2.917,0,0,0,2.627-.2c2.889-1.963,5.834-4.391,7.365-7.627.854-1.8,2.112-5.325.076-6.857-4.311-3.244-11.346,5.442-12.807,8.525-2.061,4.345-3.312,12.55,3.265,12.9,8.516.448,17.6-3.638,24.407-8.375C708.37,128.729,704.95,127.011,703.148,128.265ZM685.87,121.63a5.24,5.24,0,0,1,.588-.377,4.629,4.629,0,0,1,1.5-.639.185.185,0,0,1,.045.01l.01,0c.231.092.156.7-.374,1.807a10.064,10.064,0,0,1-1.885,3.042,19.016,19.016,0,0,1-4.289,3.8C682.127,126.412,683.649,122.9,685.87,121.63Z" transform="translate(-676.686 -116.609)"/>
        </g>
      </g>
    </g>
    <g transform="translate(4938.979 1800.493)">
      <g id="Gruppe_13902-20" data-name="Gruppe 13902" class="cls-3" transform="matrix(0.996, -0.087, 0.087, 0.996, -4606.979, -1608.416)">
        <path id="Pfad_9697-20" data-name="Pfad 9697" class="cls-4" d="M599.867,77.1c-.588-1.6-4.808-.378-4.251,1.139,2.7,7.349,3.072,14.538.432,21.953A29.245,29.245,0,0,1,594,105.033c-1.449,2.5-1.86,1.355-3.469-.741-2.332-3.039-3.742-6.753-5.39-10.182-.744-1.548-3.339-.476-4.119.472-3.235,3.933-4.51,9.264-6.709,13.779a14.9,14.9,0,0,1-2.14,3.757l-.009.01c-.788.573-1.1.236-1.175.126-.025-.048-.051-.1-.084-.147-.929-1.409-.98-3.961-1.135-5.578-1.117-11.682,1.792-25.553,9.483-34.636,1.65-1.948-2.44-2.035-3.448-.845-8.567,10.116-13.416,27.956-9.546,41,1.334,4.494,5.575,4.946,8.748,1.678,3.951-4.069,5.05-9.965,7.519-14.993,2.954,6.1,8.416,15.635,14.009,9.317,2.778-3.139,4.512-9.669,5.255-13.68C602.885,88.447,601.924,82.7,599.867,77.1Z" transform="translate(-564.908 -70.268)"/>
        <g id="Gruppe_7897-20" data-name="Gruppe 7897" transform="translate(36.921 15.307)">
          <path id="Pfad_9698-20" data-name="Pfad 9698" class="cls-4" d="M703.148,128.265a40.085,40.085,0,0,1-11.844,5.743c-3.652,1.051-10.292,3.619-10.226-2V132a2.917,2.917,0,0,0,2.627-.2c2.889-1.963,5.834-4.391,7.365-7.627.854-1.8,2.112-5.325.076-6.857-4.311-3.244-11.346,5.442-12.807,8.525-2.061,4.345-3.312,12.55,3.265,12.9,8.516.448,17.6-3.638,24.407-8.375C708.37,128.729,704.95,127.011,703.148,128.265ZM685.87,121.63a5.24,5.24,0,0,1,.588-.377,4.629,4.629,0,0,1,1.5-.639.185.185,0,0,1,.045.01l.01,0c.231.092.156.7-.374,1.807a10.064,10.064,0,0,1-1.885,3.042,19.016,19.016,0,0,1-4.289,3.8C682.127,126.412,683.649,122.9,685.87,121.63Z" transform="translate(-676.686 -116.609)"/>
        </g>
      </g>
    </g>
    <g transform="translate(4606.979 1863.493)">
      <g id="Gruppe_13902-21" data-name="Gruppe 13902" class="cls-3" transform="matrix(0.996, -0.087, 0.087, 0.996, -4606.979, -1608.416)">
        <path id="Pfad_9697-21" data-name="Pfad 9697" class="cls-4" d="M599.867,77.1c-.588-1.6-4.808-.378-4.251,1.139,2.7,7.349,3.072,14.538.432,21.953A29.245,29.245,0,0,1,594,105.033c-1.449,2.5-1.86,1.355-3.469-.741-2.332-3.039-3.742-6.753-5.39-10.182-.744-1.548-3.339-.476-4.119.472-3.235,3.933-4.51,9.264-6.709,13.779a14.9,14.9,0,0,1-2.14,3.757l-.009.01c-.788.573-1.1.236-1.175.126-.025-.048-.051-.1-.084-.147-.929-1.409-.98-3.961-1.135-5.578-1.117-11.682,1.792-25.553,9.483-34.636,1.65-1.948-2.44-2.035-3.448-.845-8.567,10.116-13.416,27.956-9.546,41,1.334,4.494,5.575,4.946,8.748,1.678,3.951-4.069,5.05-9.965,7.519-14.993,2.954,6.1,8.416,15.635,14.009,9.317,2.778-3.139,4.512-9.669,5.255-13.68C602.885,88.447,601.924,82.7,599.867,77.1Z" transform="translate(-564.908 -70.268)"/>
        <g id="Gruppe_7897-21" data-name="Gruppe 7897" transform="translate(36.921 15.307)">
          <path id="Pfad_9698-21" data-name="Pfad 9698" class="cls-4" d="M703.148,128.265a40.085,40.085,0,0,1-11.844,5.743c-3.652,1.051-10.292,3.619-10.226-2V132a2.917,2.917,0,0,0,2.627-.2c2.889-1.963,5.834-4.391,7.365-7.627.854-1.8,2.112-5.325.076-6.857-4.311-3.244-11.346,5.442-12.807,8.525-2.061,4.345-3.312,12.55,3.265,12.9,8.516.448,17.6-3.638,24.407-8.375C708.37,128.729,704.95,127.011,703.148,128.265ZM685.87,121.63a5.24,5.24,0,0,1,.588-.377,4.629,4.629,0,0,1,1.5-.639.185.185,0,0,1,.045.01l.01,0c.231.092.156.7-.374,1.807a10.064,10.064,0,0,1-1.885,3.042,19.016,19.016,0,0,1-4.289,3.8C682.127,126.412,683.649,122.9,685.87,121.63Z" transform="translate(-676.686 -116.609)"/>
        </g>
      </g>
    </g>
    <g transform="translate(4689.979 1863.493)">
      <g id="Gruppe_13902-22" data-name="Gruppe 13902" class="cls-3" transform="matrix(0.996, -0.087, 0.087, 0.996, -4606.979, -1608.416)">
        <path id="Pfad_9697-22" data-name="Pfad 9697" class="cls-4" d="M599.867,77.1c-.588-1.6-4.808-.378-4.251,1.139,2.7,7.349,3.072,14.538.432,21.953A29.245,29.245,0,0,1,594,105.033c-1.449,2.5-1.86,1.355-3.469-.741-2.332-3.039-3.742-6.753-5.39-10.182-.744-1.548-3.339-.476-4.119.472-3.235,3.933-4.51,9.264-6.709,13.779a14.9,14.9,0,0,1-2.14,3.757l-.009.01c-.788.573-1.1.236-1.175.126-.025-.048-.051-.1-.084-.147-.929-1.409-.98-3.961-1.135-5.578-1.117-11.682,1.792-25.553,9.483-34.636,1.65-1.948-2.44-2.035-3.448-.845-8.567,10.116-13.416,27.956-9.546,41,1.334,4.494,5.575,4.946,8.748,1.678,3.951-4.069,5.05-9.965,7.519-14.993,2.954,6.1,8.416,15.635,14.009,9.317,2.778-3.139,4.512-9.669,5.255-13.68C602.885,88.447,601.924,82.7,599.867,77.1Z" transform="translate(-564.908 -70.268)"/>
        <g id="Gruppe_7897-22" data-name="Gruppe 7897" transform="translate(36.921 15.307)">
          <path id="Pfad_9698-22" data-name="Pfad 9698" class="cls-4" d="M703.148,128.265a40.085,40.085,0,0,1-11.844,5.743c-3.652,1.051-10.292,3.619-10.226-2V132a2.917,2.917,0,0,0,2.627-.2c2.889-1.963,5.834-4.391,7.365-7.627.854-1.8,2.112-5.325.076-6.857-4.311-3.244-11.346,5.442-12.807,8.525-2.061,4.345-3.312,12.55,3.265,12.9,8.516.448,17.6-3.638,24.407-8.375C708.37,128.729,704.95,127.011,703.148,128.265ZM685.87,121.63a5.24,5.24,0,0,1,.588-.377,4.629,4.629,0,0,1,1.5-.639.185.185,0,0,1,.045.01l.01,0c.231.092.156.7-.374,1.807a10.064,10.064,0,0,1-1.885,3.042,19.016,19.016,0,0,1-4.289,3.8C682.127,126.412,683.649,122.9,685.87,121.63Z" transform="translate(-676.686 -116.609)"/>
        </g>
      </g>
    </g>
    <g transform="translate(4772.979 1863.493)">
      <g id="Gruppe_13902-23" data-name="Gruppe 13902" class="cls-3" transform="matrix(0.996, -0.087, 0.087, 0.996, -4606.979, -1608.416)">
        <path id="Pfad_9697-23" data-name="Pfad 9697" class="cls-4" d="M599.867,77.1c-.588-1.6-4.808-.378-4.251,1.139,2.7,7.349,3.072,14.538.432,21.953A29.245,29.245,0,0,1,594,105.033c-1.449,2.5-1.86,1.355-3.469-.741-2.332-3.039-3.742-6.753-5.39-10.182-.744-1.548-3.339-.476-4.119.472-3.235,3.933-4.51,9.264-6.709,13.779a14.9,14.9,0,0,1-2.14,3.757l-.009.01c-.788.573-1.1.236-1.175.126-.025-.048-.051-.1-.084-.147-.929-1.409-.98-3.961-1.135-5.578-1.117-11.682,1.792-25.553,9.483-34.636,1.65-1.948-2.44-2.035-3.448-.845-8.567,10.116-13.416,27.956-9.546,41,1.334,4.494,5.575,4.946,8.748,1.678,3.951-4.069,5.05-9.965,7.519-14.993,2.954,6.1,8.416,15.635,14.009,9.317,2.778-3.139,4.512-9.669,5.255-13.68C602.885,88.447,601.924,82.7,599.867,77.1Z" transform="translate(-564.908 -70.268)"/>
        <g id="Gruppe_7897-23" data-name="Gruppe 7897" transform="translate(36.921 15.307)">
          <path id="Pfad_9698-23" data-name="Pfad 9698" class="cls-4" d="M703.148,128.265a40.085,40.085,0,0,1-11.844,5.743c-3.652,1.051-10.292,3.619-10.226-2V132a2.917,2.917,0,0,0,2.627-.2c2.889-1.963,5.834-4.391,7.365-7.627.854-1.8,2.112-5.325.076-6.857-4.311-3.244-11.346,5.442-12.807,8.525-2.061,4.345-3.312,12.55,3.265,12.9,8.516.448,17.6-3.638,24.407-8.375C708.37,128.729,704.95,127.011,703.148,128.265ZM685.87,121.63a5.24,5.24,0,0,1,.588-.377,4.629,4.629,0,0,1,1.5-.639.185.185,0,0,1,.045.01l.01,0c.231.092.156.7-.374,1.807a10.064,10.064,0,0,1-1.885,3.042,19.016,19.016,0,0,1-4.289,3.8C682.127,126.412,683.649,122.9,685.87,121.63Z" transform="translate(-676.686 -116.609)"/>
        </g>
      </g>
    </g>
    <g transform="translate(4855.979 1863.493)">
      <g id="Gruppe_13902-24" data-name="Gruppe 13902" class="cls-3" transform="matrix(0.996, -0.087, 0.087, 0.996, -4606.979, -1608.416)">
        <path id="Pfad_9697-24" data-name="Pfad 9697" class="cls-4" d="M599.867,77.1c-.588-1.6-4.808-.378-4.251,1.139,2.7,7.349,3.072,14.538.432,21.953A29.245,29.245,0,0,1,594,105.033c-1.449,2.5-1.86,1.355-3.469-.741-2.332-3.039-3.742-6.753-5.39-10.182-.744-1.548-3.339-.476-4.119.472-3.235,3.933-4.51,9.264-6.709,13.779a14.9,14.9,0,0,1-2.14,3.757l-.009.01c-.788.573-1.1.236-1.175.126-.025-.048-.051-.1-.084-.147-.929-1.409-.98-3.961-1.135-5.578-1.117-11.682,1.792-25.553,9.483-34.636,1.65-1.948-2.44-2.035-3.448-.845-8.567,10.116-13.416,27.956-9.546,41,1.334,4.494,5.575,4.946,8.748,1.678,3.951-4.069,5.05-9.965,7.519-14.993,2.954,6.1,8.416,15.635,14.009,9.317,2.778-3.139,4.512-9.669,5.255-13.68C602.885,88.447,601.924,82.7,599.867,77.1Z" transform="translate(-564.908 -70.268)"/>
        <g id="Gruppe_7897-24" data-name="Gruppe 7897" transform="translate(36.921 15.307)">
          <path id="Pfad_9698-24" data-name="Pfad 9698" class="cls-4" d="M703.148,128.265a40.085,40.085,0,0,1-11.844,5.743c-3.652,1.051-10.292,3.619-10.226-2V132a2.917,2.917,0,0,0,2.627-.2c2.889-1.963,5.834-4.391,7.365-7.627.854-1.8,2.112-5.325.076-6.857-4.311-3.244-11.346,5.442-12.807,8.525-2.061,4.345-3.312,12.55,3.265,12.9,8.516.448,17.6-3.638,24.407-8.375C708.37,128.729,704.95,127.011,703.148,128.265ZM685.87,121.63a5.24,5.24,0,0,1,.588-.377,4.629,4.629,0,0,1,1.5-.639.185.185,0,0,1,.045.01l.01,0c.231.092.156.7-.374,1.807a10.064,10.064,0,0,1-1.885,3.042,19.016,19.016,0,0,1-4.289,3.8C682.127,126.412,683.649,122.9,685.87,121.63Z" transform="translate(-676.686 -116.609)"/>
        </g>
      </g>
    </g>
    <g transform="translate(4938.979 1863.493)">
      <g id="Gruppe_13902-25" data-name="Gruppe 13902" class="cls-3" transform="matrix(0.996, -0.087, 0.087, 0.996, -4606.979, -1608.416)">
        <path id="Pfad_9697-25" data-name="Pfad 9697" class="cls-4" d="M599.867,77.1c-.588-1.6-4.808-.378-4.251,1.139,2.7,7.349,3.072,14.538.432,21.953A29.245,29.245,0,0,1,594,105.033c-1.449,2.5-1.86,1.355-3.469-.741-2.332-3.039-3.742-6.753-5.39-10.182-.744-1.548-3.339-.476-4.119.472-3.235,3.933-4.51,9.264-6.709,13.779a14.9,14.9,0,0,1-2.14,3.757l-.009.01c-.788.573-1.1.236-1.175.126-.025-.048-.051-.1-.084-.147-.929-1.409-.98-3.961-1.135-5.578-1.117-11.682,1.792-25.553,9.483-34.636,1.65-1.948-2.44-2.035-3.448-.845-8.567,10.116-13.416,27.956-9.546,41,1.334,4.494,5.575,4.946,8.748,1.678,3.951-4.069,5.05-9.965,7.519-14.993,2.954,6.1,8.416,15.635,14.009,9.317,2.778-3.139,4.512-9.669,5.255-13.68C602.885,88.447,601.924,82.7,599.867,77.1Z" transform="translate(-564.908 -70.268)"/>
        <g id="Gruppe_7897-25" data-name="Gruppe 7897" transform="translate(36.921 15.307)">
          <path id="Pfad_9698-25" data-name="Pfad 9698" class="cls-4" d="M703.148,128.265a40.085,40.085,0,0,1-11.844,5.743c-3.652,1.051-10.292,3.619-10.226-2V132a2.917,2.917,0,0,0,2.627-.2c2.889-1.963,5.834-4.391,7.365-7.627.854-1.8,2.112-5.325.076-6.857-4.311-3.244-11.346,5.442-12.807,8.525-2.061,4.345-3.312,12.55,3.265,12.9,8.516.448,17.6-3.638,24.407-8.375C708.37,128.729,704.95,127.011,703.148,128.265ZM685.87,121.63a5.24,5.24,0,0,1,.588-.377,4.629,4.629,0,0,1,1.5-.639.185.185,0,0,1,.045.01l.01,0c.231.092.156.7-.374,1.807a10.064,10.064,0,0,1-1.885,3.042,19.016,19.016,0,0,1-4.289,3.8C682.127,126.412,683.649,122.9,685.87,121.63Z" transform="translate(-676.686 -116.609)"/>
        </g>
      </g>
    </g>
    <g transform="translate(4606.979 1926.493)">
      <g id="Gruppe_13902-26" data-name="Gruppe 13902" class="cls-3" transform="matrix(0.996, -0.087, 0.087, 0.996, -4606.979, -1608.416)">
        <path id="Pfad_9697-26" data-name="Pfad 9697" class="cls-4" d="M599.867,77.1c-.588-1.6-4.808-.378-4.251,1.139,2.7,7.349,3.072,14.538.432,21.953A29.245,29.245,0,0,1,594,105.033c-1.449,2.5-1.86,1.355-3.469-.741-2.332-3.039-3.742-6.753-5.39-10.182-.744-1.548-3.339-.476-4.119.472-3.235,3.933-4.51,9.264-6.709,13.779a14.9,14.9,0,0,1-2.14,3.757l-.009.01c-.788.573-1.1.236-1.175.126-.025-.048-.051-.1-.084-.147-.929-1.409-.98-3.961-1.135-5.578-1.117-11.682,1.792-25.553,9.483-34.636,1.65-1.948-2.44-2.035-3.448-.845-8.567,10.116-13.416,27.956-9.546,41,1.334,4.494,5.575,4.946,8.748,1.678,3.951-4.069,5.05-9.965,7.519-14.993,2.954,6.1,8.416,15.635,14.009,9.317,2.778-3.139,4.512-9.669,5.255-13.68C602.885,88.447,601.924,82.7,599.867,77.1Z" transform="translate(-564.908 -70.268)"/>
        <g id="Gruppe_7897-26" data-name="Gruppe 7897" transform="translate(36.921 15.307)">
          <path id="Pfad_9698-26" data-name="Pfad 9698" class="cls-4" d="M703.148,128.265a40.085,40.085,0,0,1-11.844,5.743c-3.652,1.051-10.292,3.619-10.226-2V132a2.917,2.917,0,0,0,2.627-.2c2.889-1.963,5.834-4.391,7.365-7.627.854-1.8,2.112-5.325.076-6.857-4.311-3.244-11.346,5.442-12.807,8.525-2.061,4.345-3.312,12.55,3.265,12.9,8.516.448,17.6-3.638,24.407-8.375C708.37,128.729,704.95,127.011,703.148,128.265ZM685.87,121.63a5.24,5.24,0,0,1,.588-.377,4.629,4.629,0,0,1,1.5-.639.185.185,0,0,1,.045.01l.01,0c.231.092.156.7-.374,1.807a10.064,10.064,0,0,1-1.885,3.042,19.016,19.016,0,0,1-4.289,3.8C682.127,126.412,683.649,122.9,685.87,121.63Z" transform="translate(-676.686 -116.609)"/>
        </g>
      </g>
    </g>
    <g transform="translate(4689.979 1926.493)">
      <g id="Gruppe_13902-27" data-name="Gruppe 13902" class="cls-3" transform="matrix(0.996, -0.087, 0.087, 0.996, -4606.979, -1608.416)">
        <path id="Pfad_9697-27" data-name="Pfad 9697" class="cls-4" d="M599.867,77.1c-.588-1.6-4.808-.378-4.251,1.139,2.7,7.349,3.072,14.538.432,21.953A29.245,29.245,0,0,1,594,105.033c-1.449,2.5-1.86,1.355-3.469-.741-2.332-3.039-3.742-6.753-5.39-10.182-.744-1.548-3.339-.476-4.119.472-3.235,3.933-4.51,9.264-6.709,13.779a14.9,14.9,0,0,1-2.14,3.757l-.009.01c-.788.573-1.1.236-1.175.126-.025-.048-.051-.1-.084-.147-.929-1.409-.98-3.961-1.135-5.578-1.117-11.682,1.792-25.553,9.483-34.636,1.65-1.948-2.44-2.035-3.448-.845-8.567,10.116-13.416,27.956-9.546,41,1.334,4.494,5.575,4.946,8.748,1.678,3.951-4.069,5.05-9.965,7.519-14.993,2.954,6.1,8.416,15.635,14.009,9.317,2.778-3.139,4.512-9.669,5.255-13.68C602.885,88.447,601.924,82.7,599.867,77.1Z" transform="translate(-564.908 -70.268)"/>
        <g id="Gruppe_7897-27" data-name="Gruppe 7897" transform="translate(36.921 15.307)">
          <path id="Pfad_9698-27" data-name="Pfad 9698" class="cls-4" d="M703.148,128.265a40.085,40.085,0,0,1-11.844,5.743c-3.652,1.051-10.292,3.619-10.226-2V132a2.917,2.917,0,0,0,2.627-.2c2.889-1.963,5.834-4.391,7.365-7.627.854-1.8,2.112-5.325.076-6.857-4.311-3.244-11.346,5.442-12.807,8.525-2.061,4.345-3.312,12.55,3.265,12.9,8.516.448,17.6-3.638,24.407-8.375C708.37,128.729,704.95,127.011,703.148,128.265ZM685.87,121.63a5.24,5.24,0,0,1,.588-.377,4.629,4.629,0,0,1,1.5-.639.185.185,0,0,1,.045.01l.01,0c.231.092.156.7-.374,1.807a10.064,10.064,0,0,1-1.885,3.042,19.016,19.016,0,0,1-4.289,3.8C682.127,126.412,683.649,122.9,685.87,121.63Z" transform="translate(-676.686 -116.609)"/>
        </g>
      </g>
    </g>
    <g transform="translate(4772.979 1926.493)">
      <g id="Gruppe_13902-28" data-name="Gruppe 13902" class="cls-3" transform="matrix(0.996, -0.087, 0.087, 0.996, -4606.979, -1608.416)">
        <path id="Pfad_9697-28" data-name="Pfad 9697" class="cls-4" d="M599.867,77.1c-.588-1.6-4.808-.378-4.251,1.139,2.7,7.349,3.072,14.538.432,21.953A29.245,29.245,0,0,1,594,105.033c-1.449,2.5-1.86,1.355-3.469-.741-2.332-3.039-3.742-6.753-5.39-10.182-.744-1.548-3.339-.476-4.119.472-3.235,3.933-4.51,9.264-6.709,13.779a14.9,14.9,0,0,1-2.14,3.757l-.009.01c-.788.573-1.1.236-1.175.126-.025-.048-.051-.1-.084-.147-.929-1.409-.98-3.961-1.135-5.578-1.117-11.682,1.792-25.553,9.483-34.636,1.65-1.948-2.44-2.035-3.448-.845-8.567,10.116-13.416,27.956-9.546,41,1.334,4.494,5.575,4.946,8.748,1.678,3.951-4.069,5.05-9.965,7.519-14.993,2.954,6.1,8.416,15.635,14.009,9.317,2.778-3.139,4.512-9.669,5.255-13.68C602.885,88.447,601.924,82.7,599.867,77.1Z" transform="translate(-564.908 -70.268)"/>
        <g id="Gruppe_7897-28" data-name="Gruppe 7897" transform="translate(36.921 15.307)">
          <path id="Pfad_9698-28" data-name="Pfad 9698" class="cls-4" d="M703.148,128.265a40.085,40.085,0,0,1-11.844,5.743c-3.652,1.051-10.292,3.619-10.226-2V132a2.917,2.917,0,0,0,2.627-.2c2.889-1.963,5.834-4.391,7.365-7.627.854-1.8,2.112-5.325.076-6.857-4.311-3.244-11.346,5.442-12.807,8.525-2.061,4.345-3.312,12.55,3.265,12.9,8.516.448,17.6-3.638,24.407-8.375C708.37,128.729,704.95,127.011,703.148,128.265ZM685.87,121.63a5.24,5.24,0,0,1,.588-.377,4.629,4.629,0,0,1,1.5-.639.185.185,0,0,1,.045.01l.01,0c.231.092.156.7-.374,1.807a10.064,10.064,0,0,1-1.885,3.042,19.016,19.016,0,0,1-4.289,3.8C682.127,126.412,683.649,122.9,685.87,121.63Z" transform="translate(-676.686 -116.609)"/>
        </g>
      </g>
    </g>
    <g transform="translate(4855.979 1926.493)">
      <g id="Gruppe_13902-29" data-name="Gruppe 13902" class="cls-3" transform="matrix(0.996, -0.087, 0.087, 0.996, -4606.979, -1608.416)">
        <path id="Pfad_9697-29" data-name="Pfad 9697" class="cls-4" d="M599.867,77.1c-.588-1.6-4.808-.378-4.251,1.139,2.7,7.349,3.072,14.538.432,21.953A29.245,29.245,0,0,1,594,105.033c-1.449,2.5-1.86,1.355-3.469-.741-2.332-3.039-3.742-6.753-5.39-10.182-.744-1.548-3.339-.476-4.119.472-3.235,3.933-4.51,9.264-6.709,13.779a14.9,14.9,0,0,1-2.14,3.757l-.009.01c-.788.573-1.1.236-1.175.126-.025-.048-.051-.1-.084-.147-.929-1.409-.98-3.961-1.135-5.578-1.117-11.682,1.792-25.553,9.483-34.636,1.65-1.948-2.44-2.035-3.448-.845-8.567,10.116-13.416,27.956-9.546,41,1.334,4.494,5.575,4.946,8.748,1.678,3.951-4.069,5.05-9.965,7.519-14.993,2.954,6.1,8.416,15.635,14.009,9.317,2.778-3.139,4.512-9.669,5.255-13.68C602.885,88.447,601.924,82.7,599.867,77.1Z" transform="translate(-564.908 -70.268)"/>
        <g id="Gruppe_7897-29" data-name="Gruppe 7897" transform="translate(36.921 15.307)">
          <path id="Pfad_9698-29" data-name="Pfad 9698" class="cls-4" d="M703.148,128.265a40.085,40.085,0,0,1-11.844,5.743c-3.652,1.051-10.292,3.619-10.226-2V132a2.917,2.917,0,0,0,2.627-.2c2.889-1.963,5.834-4.391,7.365-7.627.854-1.8,2.112-5.325.076-6.857-4.311-3.244-11.346,5.442-12.807,8.525-2.061,4.345-3.312,12.55,3.265,12.9,8.516.448,17.6-3.638,24.407-8.375C708.37,128.729,704.95,127.011,703.148,128.265ZM685.87,121.63a5.24,5.24,0,0,1,.588-.377,4.629,4.629,0,0,1,1.5-.639.185.185,0,0,1,.045.01l.01,0c.231.092.156.7-.374,1.807a10.064,10.064,0,0,1-1.885,3.042,19.016,19.016,0,0,1-4.289,3.8C682.127,126.412,683.649,122.9,685.87,121.63Z" transform="translate(-676.686 -116.609)"/>
        </g>
      </g>
    </g>
    <g transform="translate(4938.979 1926.493)">
      <g id="Gruppe_13902-30" data-name="Gruppe 13902" class="cls-3" transform="matrix(0.996, -0.087, 0.087, 0.996, -4606.979, -1608.416)">
        <path id="Pfad_9697-30" data-name="Pfad 9697" class="cls-4" d="M599.867,77.1c-.588-1.6-4.808-.378-4.251,1.139,2.7,7.349,3.072,14.538.432,21.953A29.245,29.245,0,0,1,594,105.033c-1.449,2.5-1.86,1.355-3.469-.741-2.332-3.039-3.742-6.753-5.39-10.182-.744-1.548-3.339-.476-4.119.472-3.235,3.933-4.51,9.264-6.709,13.779a14.9,14.9,0,0,1-2.14,3.757l-.009.01c-.788.573-1.1.236-1.175.126-.025-.048-.051-.1-.084-.147-.929-1.409-.98-3.961-1.135-5.578-1.117-11.682,1.792-25.553,9.483-34.636,1.65-1.948-2.44-2.035-3.448-.845-8.567,10.116-13.416,27.956-9.546,41,1.334,4.494,5.575,4.946,8.748,1.678,3.951-4.069,5.05-9.965,7.519-14.993,2.954,6.1,8.416,15.635,14.009,9.317,2.778-3.139,4.512-9.669,5.255-13.68C602.885,88.447,601.924,82.7,599.867,77.1Z" transform="translate(-564.908 -70.268)"/>
        <g id="Gruppe_7897-30" data-name="Gruppe 7897" transform="translate(36.921 15.307)">
          <path id="Pfad_9698-30" data-name="Pfad 9698" class="cls-4" d="M703.148,128.265a40.085,40.085,0,0,1-11.844,5.743c-3.652,1.051-10.292,3.619-10.226-2V132a2.917,2.917,0,0,0,2.627-.2c2.889-1.963,5.834-4.391,7.365-7.627.854-1.8,2.112-5.325.076-6.857-4.311-3.244-11.346,5.442-12.807,8.525-2.061,4.345-3.312,12.55,3.265,12.9,8.516.448,17.6-3.638,24.407-8.375C708.37,128.729,704.95,127.011,703.148,128.265ZM685.87,121.63a5.24,5.24,0,0,1,.588-.377,4.629,4.629,0,0,1,1.5-.639.185.185,0,0,1,.045.01l.01,0c.231.092.156.7-.374,1.807a10.064,10.064,0,0,1-1.885,3.042,19.016,19.016,0,0,1-4.289,3.8C682.127,126.412,683.649,122.9,685.87,121.63Z" transform="translate(-676.686 -116.609)"/>
        </g>
      </g>
    </g>
    <g transform="translate(4606.979 1989.493)">
      <g id="Gruppe_13902-31" data-name="Gruppe 13902" class="cls-3" transform="matrix(0.996, -0.087, 0.087, 0.996, -4606.979, -1608.416)">
        <path id="Pfad_9697-31" data-name="Pfad 9697" class="cls-4" d="M599.867,77.1c-.588-1.6-4.808-.378-4.251,1.139,2.7,7.349,3.072,14.538.432,21.953A29.245,29.245,0,0,1,594,105.033c-1.449,2.5-1.86,1.355-3.469-.741-2.332-3.039-3.742-6.753-5.39-10.182-.744-1.548-3.339-.476-4.119.472-3.235,3.933-4.51,9.264-6.709,13.779a14.9,14.9,0,0,1-2.14,3.757l-.009.01c-.788.573-1.1.236-1.175.126-.025-.048-.051-.1-.084-.147-.929-1.409-.98-3.961-1.135-5.578-1.117-11.682,1.792-25.553,9.483-34.636,1.65-1.948-2.44-2.035-3.448-.845-8.567,10.116-13.416,27.956-9.546,41,1.334,4.494,5.575,4.946,8.748,1.678,3.951-4.069,5.05-9.965,7.519-14.993,2.954,6.1,8.416,15.635,14.009,9.317,2.778-3.139,4.512-9.669,5.255-13.68C602.885,88.447,601.924,82.7,599.867,77.1Z" transform="translate(-564.908 -70.268)"/>
        <g id="Gruppe_7897-31" data-name="Gruppe 7897" transform="translate(36.921 15.307)">
          <path id="Pfad_9698-31" data-name="Pfad 9698" class="cls-4" d="M703.148,128.265a40.085,40.085,0,0,1-11.844,5.743c-3.652,1.051-10.292,3.619-10.226-2V132a2.917,2.917,0,0,0,2.627-.2c2.889-1.963,5.834-4.391,7.365-7.627.854-1.8,2.112-5.325.076-6.857-4.311-3.244-11.346,5.442-12.807,8.525-2.061,4.345-3.312,12.55,3.265,12.9,8.516.448,17.6-3.638,24.407-8.375C708.37,128.729,704.95,127.011,703.148,128.265ZM685.87,121.63a5.24,5.24,0,0,1,.588-.377,4.629,4.629,0,0,1,1.5-.639.185.185,0,0,1,.045.01l.01,0c.231.092.156.7-.374,1.807a10.064,10.064,0,0,1-1.885,3.042,19.016,19.016,0,0,1-4.289,3.8C682.127,126.412,683.649,122.9,685.87,121.63Z" transform="translate(-676.686 -116.609)"/>
        </g>
      </g>
    </g>
    <g transform="translate(4689.979 1989.493)">
      <g id="Gruppe_13902-32" data-name="Gruppe 13902" class="cls-3" transform="matrix(0.996, -0.087, 0.087, 0.996, -4606.979, -1608.416)">
        <path id="Pfad_9697-32" data-name="Pfad 9697" class="cls-4" d="M599.867,77.1c-.588-1.6-4.808-.378-4.251,1.139,2.7,7.349,3.072,14.538.432,21.953A29.245,29.245,0,0,1,594,105.033c-1.449,2.5-1.86,1.355-3.469-.741-2.332-3.039-3.742-6.753-5.39-10.182-.744-1.548-3.339-.476-4.119.472-3.235,3.933-4.51,9.264-6.709,13.779a14.9,14.9,0,0,1-2.14,3.757l-.009.01c-.788.573-1.1.236-1.175.126-.025-.048-.051-.1-.084-.147-.929-1.409-.98-3.961-1.135-5.578-1.117-11.682,1.792-25.553,9.483-34.636,1.65-1.948-2.44-2.035-3.448-.845-8.567,10.116-13.416,27.956-9.546,41,1.334,4.494,5.575,4.946,8.748,1.678,3.951-4.069,5.05-9.965,7.519-14.993,2.954,6.1,8.416,15.635,14.009,9.317,2.778-3.139,4.512-9.669,5.255-13.68C602.885,88.447,601.924,82.7,599.867,77.1Z" transform="translate(-564.908 -70.268)"/>
        <g id="Gruppe_7897-32" data-name="Gruppe 7897" transform="translate(36.921 15.307)">
          <path id="Pfad_9698-32" data-name="Pfad 9698" class="cls-4" d="M703.148,128.265a40.085,40.085,0,0,1-11.844,5.743c-3.652,1.051-10.292,3.619-10.226-2V132a2.917,2.917,0,0,0,2.627-.2c2.889-1.963,5.834-4.391,7.365-7.627.854-1.8,2.112-5.325.076-6.857-4.311-3.244-11.346,5.442-12.807,8.525-2.061,4.345-3.312,12.55,3.265,12.9,8.516.448,17.6-3.638,24.407-8.375C708.37,128.729,704.95,127.011,703.148,128.265ZM685.87,121.63a5.24,5.24,0,0,1,.588-.377,4.629,4.629,0,0,1,1.5-.639.185.185,0,0,1,.045.01l.01,0c.231.092.156.7-.374,1.807a10.064,10.064,0,0,1-1.885,3.042,19.016,19.016,0,0,1-4.289,3.8C682.127,126.412,683.649,122.9,685.87,121.63Z" transform="translate(-676.686 -116.609)"/>
        </g>
      </g>
    </g>
    <g transform="translate(4772.979 1989.493)">
      <g id="Gruppe_13902-33" data-name="Gruppe 13902" class="cls-3" transform="matrix(0.996, -0.087, 0.087, 0.996, -4606.979, -1608.416)">
        <path id="Pfad_9697-33" data-name="Pfad 9697" class="cls-4" d="M599.867,77.1c-.588-1.6-4.808-.378-4.251,1.139,2.7,7.349,3.072,14.538.432,21.953A29.245,29.245,0,0,1,594,105.033c-1.449,2.5-1.86,1.355-3.469-.741-2.332-3.039-3.742-6.753-5.39-10.182-.744-1.548-3.339-.476-4.119.472-3.235,3.933-4.51,9.264-6.709,13.779a14.9,14.9,0,0,1-2.14,3.757l-.009.01c-.788.573-1.1.236-1.175.126-.025-.048-.051-.1-.084-.147-.929-1.409-.98-3.961-1.135-5.578-1.117-11.682,1.792-25.553,9.483-34.636,1.65-1.948-2.44-2.035-3.448-.845-8.567,10.116-13.416,27.956-9.546,41,1.334,4.494,5.575,4.946,8.748,1.678,3.951-4.069,5.05-9.965,7.519-14.993,2.954,6.1,8.416,15.635,14.009,9.317,2.778-3.139,4.512-9.669,5.255-13.68C602.885,88.447,601.924,82.7,599.867,77.1Z" transform="translate(-564.908 -70.268)"/>
        <g id="Gruppe_7897-33" data-name="Gruppe 7897" transform="translate(36.921 15.307)">
          <path id="Pfad_9698-33" data-name="Pfad 9698" class="cls-4" d="M703.148,128.265a40.085,40.085,0,0,1-11.844,5.743c-3.652,1.051-10.292,3.619-10.226-2V132a2.917,2.917,0,0,0,2.627-.2c2.889-1.963,5.834-4.391,7.365-7.627.854-1.8,2.112-5.325.076-6.857-4.311-3.244-11.346,5.442-12.807,8.525-2.061,4.345-3.312,12.55,3.265,12.9,8.516.448,17.6-3.638,24.407-8.375C708.37,128.729,704.95,127.011,703.148,128.265ZM685.87,121.63a5.24,5.24,0,0,1,.588-.377,4.629,4.629,0,0,1,1.5-.639.185.185,0,0,1,.045.01l.01,0c.231.092.156.7-.374,1.807a10.064,10.064,0,0,1-1.885,3.042,19.016,19.016,0,0,1-4.289,3.8C682.127,126.412,683.649,122.9,685.87,121.63Z" transform="translate(-676.686 -116.609)"/>
        </g>
      </g>
    </g>
    <g transform="translate(4855.979 1989.493)">
      <g id="Gruppe_13902-34" data-name="Gruppe 13902" class="cls-3" transform="matrix(0.996, -0.087, 0.087, 0.996, -4606.979, -1608.416)">
        <path id="Pfad_9697-34" data-name="Pfad 9697" class="cls-4" d="M599.867,77.1c-.588-1.6-4.808-.378-4.251,1.139,2.7,7.349,3.072,14.538.432,21.953A29.245,29.245,0,0,1,594,105.033c-1.449,2.5-1.86,1.355-3.469-.741-2.332-3.039-3.742-6.753-5.39-10.182-.744-1.548-3.339-.476-4.119.472-3.235,3.933-4.51,9.264-6.709,13.779a14.9,14.9,0,0,1-2.14,3.757l-.009.01c-.788.573-1.1.236-1.175.126-.025-.048-.051-.1-.084-.147-.929-1.409-.98-3.961-1.135-5.578-1.117-11.682,1.792-25.553,9.483-34.636,1.65-1.948-2.44-2.035-3.448-.845-8.567,10.116-13.416,27.956-9.546,41,1.334,4.494,5.575,4.946,8.748,1.678,3.951-4.069,5.05-9.965,7.519-14.993,2.954,6.1,8.416,15.635,14.009,9.317,2.778-3.139,4.512-9.669,5.255-13.68C602.885,88.447,601.924,82.7,599.867,77.1Z" transform="translate(-564.908 -70.268)"/>
        <g id="Gruppe_7897-34" data-name="Gruppe 7897" transform="translate(36.921 15.307)">
          <path id="Pfad_9698-34" data-name="Pfad 9698" class="cls-4" d="M703.148,128.265a40.085,40.085,0,0,1-11.844,5.743c-3.652,1.051-10.292,3.619-10.226-2V132a2.917,2.917,0,0,0,2.627-.2c2.889-1.963,5.834-4.391,7.365-7.627.854-1.8,2.112-5.325.076-6.857-4.311-3.244-11.346,5.442-12.807,8.525-2.061,4.345-3.312,12.55,3.265,12.9,8.516.448,17.6-3.638,24.407-8.375C708.37,128.729,704.95,127.011,703.148,128.265ZM685.87,121.63a5.24,5.24,0,0,1,.588-.377,4.629,4.629,0,0,1,1.5-.639.185.185,0,0,1,.045.01l.01,0c.231.092.156.7-.374,1.807a10.064,10.064,0,0,1-1.885,3.042,19.016,19.016,0,0,1-4.289,3.8C682.127,126.412,683.649,122.9,685.87,121.63Z" transform="translate(-676.686 -116.609)"/>
        </g>
      </g>
    </g>
    <g transform="translate(4938.979 1989.493)">
      <g id="Gruppe_13902-35" data-name="Gruppe 13902" class="cls-3" transform="matrix(0.996, -0.087, 0.087, 0.996, -4606.979, -1608.416)">
        <path id="Pfad_9697-35" data-name="Pfad 9697" class="cls-4" d="M599.867,77.1c-.588-1.6-4.808-.378-4.251,1.139,2.7,7.349,3.072,14.538.432,21.953A29.245,29.245,0,0,1,594,105.033c-1.449,2.5-1.86,1.355-3.469-.741-2.332-3.039-3.742-6.753-5.39-10.182-.744-1.548-3.339-.476-4.119.472-3.235,3.933-4.51,9.264-6.709,13.779a14.9,14.9,0,0,1-2.14,3.757l-.009.01c-.788.573-1.1.236-1.175.126-.025-.048-.051-.1-.084-.147-.929-1.409-.98-3.961-1.135-5.578-1.117-11.682,1.792-25.553,9.483-34.636,1.65-1.948-2.44-2.035-3.448-.845-8.567,10.116-13.416,27.956-9.546,41,1.334,4.494,5.575,4.946,8.748,1.678,3.951-4.069,5.05-9.965,7.519-14.993,2.954,6.1,8.416,15.635,14.009,9.317,2.778-3.139,4.512-9.669,5.255-13.68C602.885,88.447,601.924,82.7,599.867,77.1Z" transform="translate(-564.908 -70.268)"/>
        <g id="Gruppe_7897-35" data-name="Gruppe 7897" transform="translate(36.921 15.307)">
          <path id="Pfad_9698-35" data-name="Pfad 9698" class="cls-4" d="M703.148,128.265a40.085,40.085,0,0,1-11.844,5.743c-3.652,1.051-10.292,3.619-10.226-2V132a2.917,2.917,0,0,0,2.627-.2c2.889-1.963,5.834-4.391,7.365-7.627.854-1.8,2.112-5.325.076-6.857-4.311-3.244-11.346,5.442-12.807,8.525-2.061,4.345-3.312,12.55,3.265,12.9,8.516.448,17.6-3.638,24.407-8.375C708.37,128.729,704.95,127.011,703.148,128.265ZM685.87,121.63a5.24,5.24,0,0,1,.588-.377,4.629,4.629,0,0,1,1.5-.639.185.185,0,0,1,.045.01l.01,0c.231.092.156.7-.374,1.807a10.064,10.064,0,0,1-1.885,3.042,19.016,19.016,0,0,1-4.289,3.8C682.127,126.412,683.649,122.9,685.87,121.63Z" transform="translate(-676.686 -116.609)"/>
        </g>
      </g>
    </g>
    <g transform="translate(4606.979 2052.493)">
      <g id="Gruppe_13902-36" data-name="Gruppe 13902" class="cls-3" transform="matrix(0.996, -0.087, 0.087, 0.996, -4606.979, -1608.416)">
        <path id="Pfad_9697-36" data-name="Pfad 9697" class="cls-4" d="M599.867,77.1c-.588-1.6-4.808-.378-4.251,1.139,2.7,7.349,3.072,14.538.432,21.953A29.245,29.245,0,0,1,594,105.033c-1.449,2.5-1.86,1.355-3.469-.741-2.332-3.039-3.742-6.753-5.39-10.182-.744-1.548-3.339-.476-4.119.472-3.235,3.933-4.51,9.264-6.709,13.779a14.9,14.9,0,0,1-2.14,3.757l-.009.01c-.788.573-1.1.236-1.175.126-.025-.048-.051-.1-.084-.147-.929-1.409-.98-3.961-1.135-5.578-1.117-11.682,1.792-25.553,9.483-34.636,1.65-1.948-2.44-2.035-3.448-.845-8.567,10.116-13.416,27.956-9.546,41,1.334,4.494,5.575,4.946,8.748,1.678,3.951-4.069,5.05-9.965,7.519-14.993,2.954,6.1,8.416,15.635,14.009,9.317,2.778-3.139,4.512-9.669,5.255-13.68C602.885,88.447,601.924,82.7,599.867,77.1Z" transform="translate(-564.908 -70.268)"/>
        <g id="Gruppe_7897-36" data-name="Gruppe 7897" transform="translate(36.921 15.307)">
          <path id="Pfad_9698-36" data-name="Pfad 9698" class="cls-4" d="M703.148,128.265a40.085,40.085,0,0,1-11.844,5.743c-3.652,1.051-10.292,3.619-10.226-2V132a2.917,2.917,0,0,0,2.627-.2c2.889-1.963,5.834-4.391,7.365-7.627.854-1.8,2.112-5.325.076-6.857-4.311-3.244-11.346,5.442-12.807,8.525-2.061,4.345-3.312,12.55,3.265,12.9,8.516.448,17.6-3.638,24.407-8.375C708.37,128.729,704.95,127.011,703.148,128.265ZM685.87,121.63a5.24,5.24,0,0,1,.588-.377,4.629,4.629,0,0,1,1.5-.639.185.185,0,0,1,.045.01l.01,0c.231.092.156.7-.374,1.807a10.064,10.064,0,0,1-1.885,3.042,19.016,19.016,0,0,1-4.289,3.8C682.127,126.412,683.649,122.9,685.87,121.63Z" transform="translate(-676.686 -116.609)"/>
        </g>
      </g>
    </g>
    <g transform="translate(4689.979 2052.493)">
      <g id="Gruppe_13902-37" data-name="Gruppe 13902" class="cls-3" transform="matrix(0.996, -0.087, 0.087, 0.996, -4606.979, -1608.416)">
        <path id="Pfad_9697-37" data-name="Pfad 9697" class="cls-4" d="M599.867,77.1c-.588-1.6-4.808-.378-4.251,1.139,2.7,7.349,3.072,14.538.432,21.953A29.245,29.245,0,0,1,594,105.033c-1.449,2.5-1.86,1.355-3.469-.741-2.332-3.039-3.742-6.753-5.39-10.182-.744-1.548-3.339-.476-4.119.472-3.235,3.933-4.51,9.264-6.709,13.779a14.9,14.9,0,0,1-2.14,3.757l-.009.01c-.788.573-1.1.236-1.175.126-.025-.048-.051-.1-.084-.147-.929-1.409-.98-3.961-1.135-5.578-1.117-11.682,1.792-25.553,9.483-34.636,1.65-1.948-2.44-2.035-3.448-.845-8.567,10.116-13.416,27.956-9.546,41,1.334,4.494,5.575,4.946,8.748,1.678,3.951-4.069,5.05-9.965,7.519-14.993,2.954,6.1,8.416,15.635,14.009,9.317,2.778-3.139,4.512-9.669,5.255-13.68C602.885,88.447,601.924,82.7,599.867,77.1Z" transform="translate(-564.908 -70.268)"/>
        <g id="Gruppe_7897-37" data-name="Gruppe 7897" transform="translate(36.921 15.307)">
          <path id="Pfad_9698-37" data-name="Pfad 9698" class="cls-4" d="M703.148,128.265a40.085,40.085,0,0,1-11.844,5.743c-3.652,1.051-10.292,3.619-10.226-2V132a2.917,2.917,0,0,0,2.627-.2c2.889-1.963,5.834-4.391,7.365-7.627.854-1.8,2.112-5.325.076-6.857-4.311-3.244-11.346,5.442-12.807,8.525-2.061,4.345-3.312,12.55,3.265,12.9,8.516.448,17.6-3.638,24.407-8.375C708.37,128.729,704.95,127.011,703.148,128.265ZM685.87,121.63a5.24,5.24,0,0,1,.588-.377,4.629,4.629,0,0,1,1.5-.639.185.185,0,0,1,.045.01l.01,0c.231.092.156.7-.374,1.807a10.064,10.064,0,0,1-1.885,3.042,19.016,19.016,0,0,1-4.289,3.8C682.127,126.412,683.649,122.9,685.87,121.63Z" transform="translate(-676.686 -116.609)"/>
        </g>
      </g>
    </g>
    <g transform="translate(4772.979 2052.493)">
      <g id="Gruppe_13902-38" data-name="Gruppe 13902" class="cls-3" transform="matrix(0.996, -0.087, 0.087, 0.996, -4606.979, -1608.416)">
        <path id="Pfad_9697-38" data-name="Pfad 9697" class="cls-4" d="M599.867,77.1c-.588-1.6-4.808-.378-4.251,1.139,2.7,7.349,3.072,14.538.432,21.953A29.245,29.245,0,0,1,594,105.033c-1.449,2.5-1.86,1.355-3.469-.741-2.332-3.039-3.742-6.753-5.39-10.182-.744-1.548-3.339-.476-4.119.472-3.235,3.933-4.51,9.264-6.709,13.779a14.9,14.9,0,0,1-2.14,3.757l-.009.01c-.788.573-1.1.236-1.175.126-.025-.048-.051-.1-.084-.147-.929-1.409-.98-3.961-1.135-5.578-1.117-11.682,1.792-25.553,9.483-34.636,1.65-1.948-2.44-2.035-3.448-.845-8.567,10.116-13.416,27.956-9.546,41,1.334,4.494,5.575,4.946,8.748,1.678,3.951-4.069,5.05-9.965,7.519-14.993,2.954,6.1,8.416,15.635,14.009,9.317,2.778-3.139,4.512-9.669,5.255-13.68C602.885,88.447,601.924,82.7,599.867,77.1Z" transform="translate(-564.908 -70.268)"/>
        <g id="Gruppe_7897-38" data-name="Gruppe 7897" transform="translate(36.921 15.307)">
          <path id="Pfad_9698-38" data-name="Pfad 9698" class="cls-4" d="M703.148,128.265a40.085,40.085,0,0,1-11.844,5.743c-3.652,1.051-10.292,3.619-10.226-2V132a2.917,2.917,0,0,0,2.627-.2c2.889-1.963,5.834-4.391,7.365-7.627.854-1.8,2.112-5.325.076-6.857-4.311-3.244-11.346,5.442-12.807,8.525-2.061,4.345-3.312,12.55,3.265,12.9,8.516.448,17.6-3.638,24.407-8.375C708.37,128.729,704.95,127.011,703.148,128.265ZM685.87,121.63a5.24,5.24,0,0,1,.588-.377,4.629,4.629,0,0,1,1.5-.639.185.185,0,0,1,.045.01l.01,0c.231.092.156.7-.374,1.807a10.064,10.064,0,0,1-1.885,3.042,19.016,19.016,0,0,1-4.289,3.8C682.127,126.412,683.649,122.9,685.87,121.63Z" transform="translate(-676.686 -116.609)"/>
        </g>
      </g>
    </g>
    <g transform="translate(4855.979 2052.493)">
      <g id="Gruppe_13902-39" data-name="Gruppe 13902" class="cls-3" transform="matrix(0.996, -0.087, 0.087, 0.996, -4606.979, -1608.416)">
        <path id="Pfad_9697-39" data-name="Pfad 9697" class="cls-4" d="M599.867,77.1c-.588-1.6-4.808-.378-4.251,1.139,2.7,7.349,3.072,14.538.432,21.953A29.245,29.245,0,0,1,594,105.033c-1.449,2.5-1.86,1.355-3.469-.741-2.332-3.039-3.742-6.753-5.39-10.182-.744-1.548-3.339-.476-4.119.472-3.235,3.933-4.51,9.264-6.709,13.779a14.9,14.9,0,0,1-2.14,3.757l-.009.01c-.788.573-1.1.236-1.175.126-.025-.048-.051-.1-.084-.147-.929-1.409-.98-3.961-1.135-5.578-1.117-11.682,1.792-25.553,9.483-34.636,1.65-1.948-2.44-2.035-3.448-.845-8.567,10.116-13.416,27.956-9.546,41,1.334,4.494,5.575,4.946,8.748,1.678,3.951-4.069,5.05-9.965,7.519-14.993,2.954,6.1,8.416,15.635,14.009,9.317,2.778-3.139,4.512-9.669,5.255-13.68C602.885,88.447,601.924,82.7,599.867,77.1Z" transform="translate(-564.908 -70.268)"/>
        <g id="Gruppe_7897-39" data-name="Gruppe 7897" transform="translate(36.921 15.307)">
          <path id="Pfad_9698-39" data-name="Pfad 9698" class="cls-4" d="M703.148,128.265a40.085,40.085,0,0,1-11.844,5.743c-3.652,1.051-10.292,3.619-10.226-2V132a2.917,2.917,0,0,0,2.627-.2c2.889-1.963,5.834-4.391,7.365-7.627.854-1.8,2.112-5.325.076-6.857-4.311-3.244-11.346,5.442-12.807,8.525-2.061,4.345-3.312,12.55,3.265,12.9,8.516.448,17.6-3.638,24.407-8.375C708.37,128.729,704.95,127.011,703.148,128.265ZM685.87,121.63a5.24,5.24,0,0,1,.588-.377,4.629,4.629,0,0,1,1.5-.639.185.185,0,0,1,.045.01l.01,0c.231.092.156.7-.374,1.807a10.064,10.064,0,0,1-1.885,3.042,19.016,19.016,0,0,1-4.289,3.8C682.127,126.412,683.649,122.9,685.87,121.63Z" transform="translate(-676.686 -116.609)"/>
        </g>
      </g>
    </g>
    <g transform="translate(4938.979 2052.493)">
      <g id="Gruppe_13902-40" data-name="Gruppe 13902" class="cls-3" transform="matrix(0.996, -0.087, 0.087, 0.996, -4606.979, -1608.416)">
        <path id="Pfad_9697-40" data-name="Pfad 9697" class="cls-4" d="M599.867,77.1c-.588-1.6-4.808-.378-4.251,1.139,2.7,7.349,3.072,14.538.432,21.953A29.245,29.245,0,0,1,594,105.033c-1.449,2.5-1.86,1.355-3.469-.741-2.332-3.039-3.742-6.753-5.39-10.182-.744-1.548-3.339-.476-4.119.472-3.235,3.933-4.51,9.264-6.709,13.779a14.9,14.9,0,0,1-2.14,3.757l-.009.01c-.788.573-1.1.236-1.175.126-.025-.048-.051-.1-.084-.147-.929-1.409-.98-3.961-1.135-5.578-1.117-11.682,1.792-25.553,9.483-34.636,1.65-1.948-2.44-2.035-3.448-.845-8.567,10.116-13.416,27.956-9.546,41,1.334,4.494,5.575,4.946,8.748,1.678,3.951-4.069,5.05-9.965,7.519-14.993,2.954,6.1,8.416,15.635,14.009,9.317,2.778-3.139,4.512-9.669,5.255-13.68C602.885,88.447,601.924,82.7,599.867,77.1Z" transform="translate(-564.908 -70.268)"/>
        <g id="Gruppe_7897-40" data-name="Gruppe 7897" transform="translate(36.921 15.307)">
          <path id="Pfad_9698-40" data-name="Pfad 9698" class="cls-4" d="M703.148,128.265a40.085,40.085,0,0,1-11.844,5.743c-3.652,1.051-10.292,3.619-10.226-2V132a2.917,2.917,0,0,0,2.627-.2c2.889-1.963,5.834-4.391,7.365-7.627.854-1.8,2.112-5.325.076-6.857-4.311-3.244-11.346,5.442-12.807,8.525-2.061,4.345-3.312,12.55,3.265,12.9,8.516.448,17.6-3.638,24.407-8.375C708.37,128.729,704.95,127.011,703.148,128.265ZM685.87,121.63a5.24,5.24,0,0,1,.588-.377,4.629,4.629,0,0,1,1.5-.639.185.185,0,0,1,.045.01l.01,0c.231.092.156.7-.374,1.807a10.064,10.064,0,0,1-1.885,3.042,19.016,19.016,0,0,1-4.289,3.8C682.127,126.412,683.649,122.9,685.87,121.63Z" transform="translate(-676.686 -116.609)"/>
        </g>
      </g>
    </g>
    <g transform="translate(4606.979 2115.493)">
      <g id="Gruppe_13902-41" data-name="Gruppe 13902" class="cls-3" transform="matrix(0.996, -0.087, 0.087, 0.996, -4606.979, -1608.416)">
        <path id="Pfad_9697-41" data-name="Pfad 9697" class="cls-4" d="M599.867,77.1c-.588-1.6-4.808-.378-4.251,1.139,2.7,7.349,3.072,14.538.432,21.953A29.245,29.245,0,0,1,594,105.033c-1.449,2.5-1.86,1.355-3.469-.741-2.332-3.039-3.742-6.753-5.39-10.182-.744-1.548-3.339-.476-4.119.472-3.235,3.933-4.51,9.264-6.709,13.779a14.9,14.9,0,0,1-2.14,3.757l-.009.01c-.788.573-1.1.236-1.175.126-.025-.048-.051-.1-.084-.147-.929-1.409-.98-3.961-1.135-5.578-1.117-11.682,1.792-25.553,9.483-34.636,1.65-1.948-2.44-2.035-3.448-.845-8.567,10.116-13.416,27.956-9.546,41,1.334,4.494,5.575,4.946,8.748,1.678,3.951-4.069,5.05-9.965,7.519-14.993,2.954,6.1,8.416,15.635,14.009,9.317,2.778-3.139,4.512-9.669,5.255-13.68C602.885,88.447,601.924,82.7,599.867,77.1Z" transform="translate(-564.908 -70.268)"/>
        <g id="Gruppe_7897-41" data-name="Gruppe 7897" transform="translate(36.921 15.307)">
          <path id="Pfad_9698-41" data-name="Pfad 9698" class="cls-4" d="M703.148,128.265a40.085,40.085,0,0,1-11.844,5.743c-3.652,1.051-10.292,3.619-10.226-2V132a2.917,2.917,0,0,0,2.627-.2c2.889-1.963,5.834-4.391,7.365-7.627.854-1.8,2.112-5.325.076-6.857-4.311-3.244-11.346,5.442-12.807,8.525-2.061,4.345-3.312,12.55,3.265,12.9,8.516.448,17.6-3.638,24.407-8.375C708.37,128.729,704.95,127.011,703.148,128.265ZM685.87,121.63a5.24,5.24,0,0,1,.588-.377,4.629,4.629,0,0,1,1.5-.639.185.185,0,0,1,.045.01l.01,0c.231.092.156.7-.374,1.807a10.064,10.064,0,0,1-1.885,3.042,19.016,19.016,0,0,1-4.289,3.8C682.127,126.412,683.649,122.9,685.87,121.63Z" transform="translate(-676.686 -116.609)"/>
        </g>
      </g>
    </g>
    <g transform="translate(4689.979 2115.493)">
      <g id="Gruppe_13902-42" data-name="Gruppe 13902" class="cls-3" transform="matrix(0.996, -0.087, 0.087, 0.996, -4606.979, -1608.416)">
        <path id="Pfad_9697-42" data-name="Pfad 9697" class="cls-4" d="M599.867,77.1c-.588-1.6-4.808-.378-4.251,1.139,2.7,7.349,3.072,14.538.432,21.953A29.245,29.245,0,0,1,594,105.033c-1.449,2.5-1.86,1.355-3.469-.741-2.332-3.039-3.742-6.753-5.39-10.182-.744-1.548-3.339-.476-4.119.472-3.235,3.933-4.51,9.264-6.709,13.779a14.9,14.9,0,0,1-2.14,3.757l-.009.01c-.788.573-1.1.236-1.175.126-.025-.048-.051-.1-.084-.147-.929-1.409-.98-3.961-1.135-5.578-1.117-11.682,1.792-25.553,9.483-34.636,1.65-1.948-2.44-2.035-3.448-.845-8.567,10.116-13.416,27.956-9.546,41,1.334,4.494,5.575,4.946,8.748,1.678,3.951-4.069,5.05-9.965,7.519-14.993,2.954,6.1,8.416,15.635,14.009,9.317,2.778-3.139,4.512-9.669,5.255-13.68C602.885,88.447,601.924,82.7,599.867,77.1Z" transform="translate(-564.908 -70.268)"/>
        <g id="Gruppe_7897-42" data-name="Gruppe 7897" transform="translate(36.921 15.307)">
          <path id="Pfad_9698-42" data-name="Pfad 9698" class="cls-4" d="M703.148,128.265a40.085,40.085,0,0,1-11.844,5.743c-3.652,1.051-10.292,3.619-10.226-2V132a2.917,2.917,0,0,0,2.627-.2c2.889-1.963,5.834-4.391,7.365-7.627.854-1.8,2.112-5.325.076-6.857-4.311-3.244-11.346,5.442-12.807,8.525-2.061,4.345-3.312,12.55,3.265,12.9,8.516.448,17.6-3.638,24.407-8.375C708.37,128.729,704.95,127.011,703.148,128.265ZM685.87,121.63a5.24,5.24,0,0,1,.588-.377,4.629,4.629,0,0,1,1.5-.639.185.185,0,0,1,.045.01l.01,0c.231.092.156.7-.374,1.807a10.064,10.064,0,0,1-1.885,3.042,19.016,19.016,0,0,1-4.289,3.8C682.127,126.412,683.649,122.9,685.87,121.63Z" transform="translate(-676.686 -116.609)"/>
        </g>
      </g>
    </g>
    <g transform="translate(4772.979 2115.493)">
      <g id="Gruppe_13902-43" data-name="Gruppe 13902" class="cls-3" transform="matrix(0.996, -0.087, 0.087, 0.996, -4606.979, -1608.416)">
        <path id="Pfad_9697-43" data-name="Pfad 9697" class="cls-4" d="M599.867,77.1c-.588-1.6-4.808-.378-4.251,1.139,2.7,7.349,3.072,14.538.432,21.953A29.245,29.245,0,0,1,594,105.033c-1.449,2.5-1.86,1.355-3.469-.741-2.332-3.039-3.742-6.753-5.39-10.182-.744-1.548-3.339-.476-4.119.472-3.235,3.933-4.51,9.264-6.709,13.779a14.9,14.9,0,0,1-2.14,3.757l-.009.01c-.788.573-1.1.236-1.175.126-.025-.048-.051-.1-.084-.147-.929-1.409-.98-3.961-1.135-5.578-1.117-11.682,1.792-25.553,9.483-34.636,1.65-1.948-2.44-2.035-3.448-.845-8.567,10.116-13.416,27.956-9.546,41,1.334,4.494,5.575,4.946,8.748,1.678,3.951-4.069,5.05-9.965,7.519-14.993,2.954,6.1,8.416,15.635,14.009,9.317,2.778-3.139,4.512-9.669,5.255-13.68C602.885,88.447,601.924,82.7,599.867,77.1Z" transform="translate(-564.908 -70.268)"/>
        <g id="Gruppe_7897-43" data-name="Gruppe 7897" transform="translate(36.921 15.307)">
          <path id="Pfad_9698-43" data-name="Pfad 9698" class="cls-4" d="M703.148,128.265a40.085,40.085,0,0,1-11.844,5.743c-3.652,1.051-10.292,3.619-10.226-2V132a2.917,2.917,0,0,0,2.627-.2c2.889-1.963,5.834-4.391,7.365-7.627.854-1.8,2.112-5.325.076-6.857-4.311-3.244-11.346,5.442-12.807,8.525-2.061,4.345-3.312,12.55,3.265,12.9,8.516.448,17.6-3.638,24.407-8.375C708.37,128.729,704.95,127.011,703.148,128.265ZM685.87,121.63a5.24,5.24,0,0,1,.588-.377,4.629,4.629,0,0,1,1.5-.639.185.185,0,0,1,.045.01l.01,0c.231.092.156.7-.374,1.807a10.064,10.064,0,0,1-1.885,3.042,19.016,19.016,0,0,1-4.289,3.8C682.127,126.412,683.649,122.9,685.87,121.63Z" transform="translate(-676.686 -116.609)"/>
        </g>
      </g>
    </g>
    <g transform="translate(4855.979 2115.493)">
      <g id="Gruppe_13902-44" data-name="Gruppe 13902" class="cls-3" transform="matrix(0.996, -0.087, 0.087, 0.996, -4606.979, -1608.416)">
        <path id="Pfad_9697-44" data-name="Pfad 9697" class="cls-4" d="M599.867,77.1c-.588-1.6-4.808-.378-4.251,1.139,2.7,7.349,3.072,14.538.432,21.953A29.245,29.245,0,0,1,594,105.033c-1.449,2.5-1.86,1.355-3.469-.741-2.332-3.039-3.742-6.753-5.39-10.182-.744-1.548-3.339-.476-4.119.472-3.235,3.933-4.51,9.264-6.709,13.779a14.9,14.9,0,0,1-2.14,3.757l-.009.01c-.788.573-1.1.236-1.175.126-.025-.048-.051-.1-.084-.147-.929-1.409-.98-3.961-1.135-5.578-1.117-11.682,1.792-25.553,9.483-34.636,1.65-1.948-2.44-2.035-3.448-.845-8.567,10.116-13.416,27.956-9.546,41,1.334,4.494,5.575,4.946,8.748,1.678,3.951-4.069,5.05-9.965,7.519-14.993,2.954,6.1,8.416,15.635,14.009,9.317,2.778-3.139,4.512-9.669,5.255-13.68C602.885,88.447,601.924,82.7,599.867,77.1Z" transform="translate(-564.908 -70.268)"/>
        <g id="Gruppe_7897-44" data-name="Gruppe 7897" transform="translate(36.921 15.307)">
          <path id="Pfad_9698-44" data-name="Pfad 9698" class="cls-4" d="M703.148,128.265a40.085,40.085,0,0,1-11.844,5.743c-3.652,1.051-10.292,3.619-10.226-2V132a2.917,2.917,0,0,0,2.627-.2c2.889-1.963,5.834-4.391,7.365-7.627.854-1.8,2.112-5.325.076-6.857-4.311-3.244-11.346,5.442-12.807,8.525-2.061,4.345-3.312,12.55,3.265,12.9,8.516.448,17.6-3.638,24.407-8.375C708.37,128.729,704.95,127.011,703.148,128.265ZM685.87,121.63a5.24,5.24,0,0,1,.588-.377,4.629,4.629,0,0,1,1.5-.639.185.185,0,0,1,.045.01l.01,0c.231.092.156.7-.374,1.807a10.064,10.064,0,0,1-1.885,3.042,19.016,19.016,0,0,1-4.289,3.8C682.127,126.412,683.649,122.9,685.87,121.63Z" transform="translate(-676.686 -116.609)"/>
        </g>
      </g>
    </g>
    <g transform="translate(4938.979 2115.493)">
      <g id="Gruppe_13902-45" data-name="Gruppe 13902" class="cls-3" transform="matrix(0.996, -0.087, 0.087, 0.996, -4606.979, -1608.416)">
        <path id="Pfad_9697-45" data-name="Pfad 9697" class="cls-4" d="M599.867,77.1c-.588-1.6-4.808-.378-4.251,1.139,2.7,7.349,3.072,14.538.432,21.953A29.245,29.245,0,0,1,594,105.033c-1.449,2.5-1.86,1.355-3.469-.741-2.332-3.039-3.742-6.753-5.39-10.182-.744-1.548-3.339-.476-4.119.472-3.235,3.933-4.51,9.264-6.709,13.779a14.9,14.9,0,0,1-2.14,3.757l-.009.01c-.788.573-1.1.236-1.175.126-.025-.048-.051-.1-.084-.147-.929-1.409-.98-3.961-1.135-5.578-1.117-11.682,1.792-25.553,9.483-34.636,1.65-1.948-2.44-2.035-3.448-.845-8.567,10.116-13.416,27.956-9.546,41,1.334,4.494,5.575,4.946,8.748,1.678,3.951-4.069,5.05-9.965,7.519-14.993,2.954,6.1,8.416,15.635,14.009,9.317,2.778-3.139,4.512-9.669,5.255-13.68C602.885,88.447,601.924,82.7,599.867,77.1Z" transform="translate(-564.908 -70.268)"/>
        <g id="Gruppe_7897-45" data-name="Gruppe 7897" transform="translate(36.921 15.307)">
          <path id="Pfad_9698-45" data-name="Pfad 9698" class="cls-4" d="M703.148,128.265a40.085,40.085,0,0,1-11.844,5.743c-3.652,1.051-10.292,3.619-10.226-2V132a2.917,2.917,0,0,0,2.627-.2c2.889-1.963,5.834-4.391,7.365-7.627.854-1.8,2.112-5.325.076-6.857-4.311-3.244-11.346,5.442-12.807,8.525-2.061,4.345-3.312,12.55,3.265,12.9,8.516.448,17.6-3.638,24.407-8.375C708.37,128.729,704.95,127.011,703.148,128.265ZM685.87,121.63a5.24,5.24,0,0,1,.588-.377,4.629,4.629,0,0,1,1.5-.639.185.185,0,0,1,.045.01l.01,0c.231.092.156.7-.374,1.807a10.064,10.064,0,0,1-1.885,3.042,19.016,19.016,0,0,1-4.289,3.8C682.127,126.412,683.649,122.9,685.87,121.63Z" transform="translate(-676.686 -116.609)"/>
        </g>
      </g>
    </g>
  </g>
</svg>