<svg xmlns="http://www.w3.org/2000/svg" id="pic-Logo_WeN" width="116" height="40" viewBox="0 0 116 40">
  <defs>
    <style>
      .cls-1 {
        fill: none;
      }

      .cls-2 {
        fill: #333;
      }

      .cls-3 {
        fill: #e2001a;
      }
    </style>
  </defs>
  <rect id="Rechteck_8113" data-name="Rechteck 8113" class="cls-1" width="116" height="40"/>
  <g id="WeNetwork_Logo" transform="translate(4.41 7.626)">
    <path id="Pfad_9685" class="cls-2" d="M90.77,23.081V9.294H88.888l.047,6.776c0,1.506.141,3.717.188,4.094l-.141.047a28.577,28.577,0,0,0-1.365-3.294L83.759,9.294H81.5V23.081h1.929l-.094-7.246c0-1.27-.047-2.682-.141-3.858h.141a29.781,29.781,0,0,0,1.694,3.764l3.623,7.34Zm10.446-4.611V18.14c0-2.306-.329-3.435-1.223-4.329a3.995,3.995,0,0,0-5.741.282,5.512,5.512,0,0,0-1.223,3.858c0,3.294,1.694,5.317,4.47,5.317A5.3,5.3,0,0,0,100.981,22l-.706-1.082a3.407,3.407,0,0,1-2.447.941,2.637,2.637,0,0,1-2.306-1.176,3.746,3.746,0,0,1-.423-2.023v-.235Zm-1.929-1.365H95.146c0-1.835.706-2.964,2.117-2.964a1.826,1.826,0,0,1,1.459.706A3.774,3.774,0,0,1,99.287,17.105Zm8.564-4.047H105.4a27.1,27.1,0,0,1,.188-3.011l-1.882.423a22.994,22.994,0,0,0-.141,2.541h-1.223v1.318h1.223v6.446c0,1.459.329,1.647.753,2.023a3.118,3.118,0,0,0,1.694.518,4.192,4.192,0,0,0,1.835-.423l-.235-1.129a2.107,2.107,0,0,1-.941.188c-.988,0-1.318-.376-1.318-1.6V14.329h1.976Zm13.787,0h-1.929l-1.223,5.458c-.141.659-.471,2.259-.471,2.4h-.094c0-.094-.282-1.365-.565-2.447l-1.412-5.411h-1.882l-1.506,5.6c-.235.847-.471,2.259-.471,2.259h-.047s-.282-1.459-.518-2.447l-1.27-5.6-1.882.282L111.1,23.175h1.741l1.506-5.6.565-2.259h.047s.423,1.647.612,2.353l1.459,5.458h1.788Zm9.552,5.082c0-3.011-1.459-5.364-4.423-5.364-2.635,0-4.282,2.023-4.282,5.27s1.647,5.317,4.329,5.317,4.376-2.023,4.376-5.223Zm-2.07.094c0,2.635-.847,3.717-2.259,3.717-1.553,0-2.353-1.035-2.353-4.094,0-2.541.659-3.67,2.259-3.67,1.459,0,2.353.941,2.353,4.047Zm9.458-5.411a2.754,2.754,0,0,0-.612-.094,3.247,3.247,0,0,0-2.729,1.741v-.188a4.6,4.6,0,0,0-.329-1.553l-1.788.471a6.435,6.435,0,0,1,.376,2.494v7.34h1.835v-6.4a2.079,2.079,0,0,1,2.07-2.023,1.692,1.692,0,0,1,.518.094Zm3.106,10.258V10.612a11.772,11.772,0,0,0-.235-2.212l-1.882.423a9.282,9.282,0,0,1,.282,2.259V23.034h1.835Zm6.635,0-4.47-5.788,3.576-4.282h-2.259l-3.294,4.329,4.141,5.694Z" transform="translate(-42.839 -4.528)"/>
    <g id="Gruppe_7898" transform="translate(0.59 -0.153)">
      <path id="Pfad_9697" class="cls-3" d="M18.616,3.448c-.282-.847-2.494-.188-2.212.565a15.838,15.838,0,0,1,.235,11.293A16.4,16.4,0,0,1,15.6,17.8c-.753,1.27-.941.706-1.788-.376a26.8,26.8,0,0,1-2.776-5.27c-.376-.8-1.741-.235-2.117.235-1.647,2.023-2.306,4.752-3.435,7.105a8.52,8.52,0,0,1-1.082,1.929h0c-.423.282-.565.141-.612.047,0-.047-.047-.047-.047-.094a6.524,6.524,0,0,1-.565-2.87C2.618,12.483,4.124,5.33,8.076.672,8.923-.316,6.806-.363,6.288.248,1.771,5.519-.723,14.741,1.3,21.423c.706,2.306,2.87,2.541,4.517.847,2.023-2.117,2.588-5.129,3.858-7.717,1.506,3.153,4.329,8.046,7.2,4.8,1.412-1.6,2.306-4.988,2.729-7.058A16.75,16.75,0,0,0,18.616,3.448Z" transform="translate(-0.59 0.153)"/>
      <g id="Gruppe_7897" transform="translate(19.036 7.957)">
        <path id="Pfad_9698" class="cls-3" d="M12.39,5.243A20.488,20.488,0,0,1,6.273,8.207C4.391,8.725.956,10.089,1,7.172H1a1.555,1.555,0,0,0,1.365-.094A10.257,10.257,0,0,0,6.179,3.125C6.6,2.184,7.261.4,6.226-.4,4.014-2.051.391,2.42-.362,3.972c-1.082,2.259-1.694,6.446,1.694,6.635,4.376.235,9.081-1.882,12.564-4.329C15.072,5.478,13.331,4.584,12.39,5.243ZM3.5,1.808a2.046,2.046,0,0,1,.329-.188,3.642,3.642,0,0,1,.753-.329h0c.141.047.094.376-.188.941A4.057,4.057,0,0,1,3.45,3.784,9.923,9.923,0,0,1,1.238,5.76C1.567,4.3,2.367,2.467,3.5,1.808Z" transform="translate(1.216 0.762)"/>
      </g>
    </g>
    <circle id="Ellipse_1073" data-name="Ellipse 1073" class="cls-2" cx="1.176" cy="1.176" r="1.176" transform="translate(34.662 16.388)"/>
  </g>
</svg>